<svg xmlns="http://www.w3.org/2000/svg" xmlns:xlink="http://www.w3.org/1999/xlink" width="1104" zoomAndPan="magnify" viewBox="0 0 828 170.249993" height="227" preserveAspectRatio="xMidYMid meet" version="1.0"><defs><g/><clipPath id="755af66b56"><path d="M 15.703125 0 L 206 0 L 206 155 L 15.703125 155 Z M 15.703125 0 " clip-rule="nonzero"/></clipPath><clipPath id="f295f2aa75"><path d="M 639.804688 0 L 811.546875 0 L 811.546875 155.316406 L 639.804688 155.316406 Z M 639.804688 0 " clip-rule="nonzero"/></clipPath><clipPath id="20e3f5f095"><path d="M 440.515625 0 L 580 0 L 580 155.316406 L 440.515625 155.316406 Z M 440.515625 0 " clip-rule="nonzero"/></clipPath><clipPath id="b7f9dc199f"><path d="M 0.539062 0.476562 L 139.828125 0.476562 L 139.828125 155.316406 L 0.539062 155.316406 Z M 0.539062 0.476562 " clip-rule="nonzero"/></clipPath><clipPath id="5b95bfb983"><rect x="0" width="140" y="0" height="156"/></clipPath><clipPath id="1d932d4cbf"><path d="M 266.414062 0 L 415.757812 0 L 415.757812 155 L 266.414062 155 Z M 266.414062 0 " clip-rule="nonzero"/></clipPath></defs><g clip-path="url(#755af66b56)"><path fill="#ee202d" d="M 155.382812 4.675781 C 155.328125 4.675781 155.328125 4.675781 155.328125 4.675781 C 155.328125 4.730469 155.382812 4.730469 155.382812 4.730469 L 155.433594 4.78125 C 155.433594 4.78125 155.488281 4.78125 155.488281 4.78125 C 155.808594 4.304688 156.179688 4.25 156.554688 4.570312 C 157.140625 5.050781 157.300781 6.167969 156.5 6.59375 C 155.753906 7.019531 155.328125 7.234375 155.222656 7.289062 C 155.222656 7.339844 155.167969 7.394531 155.167969 7.445312 C 155.167969 7.554688 155.222656 7.605469 155.328125 7.605469 C 155.382812 7.605469 155.382812 7.605469 155.382812 7.605469 L 156.5 7.234375 C 156.554688 7.234375 156.605469 7.234375 156.605469 7.234375 C 157.671875 7.394531 158.417969 8.460938 157.351562 9.207031 C 157.300781 9.207031 157.246094 9.257812 157.191406 9.257812 L 156.289062 9.3125 C 156.179688 9.3125 156.074219 9.367188 156.019531 9.417969 C 155.222656 10.21875 154.582031 10.644531 153.460938 10.699219 C 151.96875 10.804688 150.476562 11.125 148.933594 11.65625 C 147.707031 12.082031 146.535156 12.882812 145.414062 13.734375 C 145.097656 13.949219 144.722656 14.109375 144.351562 14.160156 C 142.804688 14.429688 141.898438 14.960938 140.511719 16.082031 C 138.648438 17.574219 136.835938 19.171875 134.917969 20.875 C 134.917969 20.875 134.917969 20.875 134.917969 20.929688 C 134.863281 20.984375 134.917969 21.035156 134.96875 21.035156 C 134.96875 21.035156 134.96875 21.089844 134.96875 21.089844 C 135.503906 21.144531 136.410156 21.515625 135.929688 22.261719 C 135.929688 22.316406 135.875 22.367188 135.824219 22.476562 C 135.824219 22.527344 135.824219 22.636719 135.929688 22.6875 C 136.355469 22.847656 136.890625 23.222656 137.636719 23.753906 C 138.914062 24.714844 140.085938 25.140625 141.683594 25.351562 C 141.738281 25.351562 141.84375 25.300781 141.898438 25.195312 C 142.003906 24.980469 142.164062 24.875 142.324219 24.765625 C 142.378906 24.765625 142.484375 24.765625 142.539062 24.765625 C 146.800781 25.726562 151.652344 26.792969 157.191406 27.859375 C 158.578125 28.125 159.859375 28.550781 160.976562 29.082031 C 161.082031 29.136719 161.191406 29.136719 161.351562 29.136719 C 162.628906 29.136719 164.335938 28.710938 165.828125 28.65625 C 168.277344 28.550781 170.570312 28.230469 172.753906 27.804688 C 173.820312 27.589844 175.738281 27.859375 176.699219 28.019531 C 176.75 28.019531 176.75 28.019531 176.75 28.019531 C 176.804688 28.019531 176.910156 27.964844 176.910156 27.910156 L 177.179688 27.324219 C 177.230469 27.273438 177.230469 27.273438 177.285156 27.21875 C 177.816406 26.632812 178.296875 25.941406 178.722656 25.195312 C 178.828125 25.035156 178.882812 24.820312 178.777344 24.605469 C 178.082031 23.328125 178.828125 21.675781 179.097656 20.609375 C 179.097656 20.558594 179.097656 20.558594 179.097656 20.503906 C 179.097656 20.449219 179.097656 20.398438 179.042969 20.34375 C 177.335938 17.734375 180.320312 15.496094 182.558594 14.695312 C 184.53125 13.949219 186.609375 13.683594 188.796875 13.734375 C 195.671875 14.054688 200.09375 20.503906 196.363281 26.898438 C 195.402344 28.605469 193.910156 30.414062 193.910156 32.707031 C 193.910156 32.8125 193.964844 32.921875 194.070312 32.972656 C 195.136719 33.453125 196.097656 33.933594 196.84375 34.785156 C 197.75 35.90625 197.269531 38.144531 197.003906 39.421875 C 197.003906 39.527344 197.003906 39.636719 197.109375 39.742188 C 197.375 40.167969 197.589844 40.542969 197.75 41.019531 C 197.800781 41.179688 197.910156 41.339844 198.066406 41.449219 C 198.921875 42.085938 200.199219 43.257812 201.90625 44.964844 C 204.941406 48.054688 206.007812 51.785156 205.101562 56.15625 C 204.675781 58.128906 204.355469 59.621094 204.144531 60.632812 C 204.089844 60.847656 204.089844 61.113281 204.089844 61.324219 C 204.304688 64.308594 204.144531 67.453125 203.558594 70.171875 C 203.289062 71.398438 202.972656 72.410156 202.542969 73.210938 C 202.171875 73.902344 201.957031 74.382812 201.796875 74.648438 C 201.746094 74.753906 201.691406 74.914062 201.691406 75.074219 C 201.585938 76.195312 201.320312 77.632812 200.785156 78.75 C 199.507812 81.578125 196.789062 81.949219 194.019531 81.894531 C 193.804688 81.894531 193.539062 81.949219 193.324219 82.054688 C 190.605469 83.070312 187.730469 83.65625 184.585938 83.816406 C 184.480469 83.816406 184.371094 83.761719 184.320312 83.65625 C 183.199219 81.734375 183.144531 79.816406 183.144531 77.417969 C 183.144531 74.96875 183.253906 72.464844 183.464844 69.90625 C 183.464844 69.800781 183.414062 69.746094 183.304688 69.746094 C 183.304688 69.746094 183.304688 69.800781 183.253906 69.800781 C 181.652344 70.972656 180.003906 71.929688 178.402344 72.625 C 178.242188 72.675781 178.136719 72.785156 177.976562 72.890625 C 176.804688 74.007812 175.472656 74.542969 173.765625 74.382812 C 173.605469 74.328125 173.5 74.433594 173.449219 74.59375 L 173.179688 75.5 C 173.179688 75.609375 173.179688 75.660156 173.179688 75.714844 C 175.257812 80.722656 178.242188 84.878906 182.242188 88.238281 C 184.480469 90.15625 186.558594 91.753906 188.421875 93.085938 C 188.902344 93.460938 188.796875 93.886719 188.421875 94.3125 C 187.515625 95.433594 186.664062 96.339844 185.8125 97.085938 C 185.597656 97.246094 185.332031 97.246094 185.117188 97.085938 C 180.855469 93.621094 177.230469 89.570312 174.566406 84.878906 C 173.289062 82.589844 172.488281 79.976562 171.6875 77.367188 C 171.6875 77.3125 171.636719 77.261719 171.582031 77.3125 L 171.527344 77.3125 C 171.527344 77.3125 171.476562 77.367188 171.527344 77.367188 C 171.957031 79.550781 172.96875 82.003906 173.554688 84.5625 C 173.925781 86.210938 174.195312 87.226562 174.351562 87.652344 C 175.953125 91.382812 177.390625 95.273438 178.722656 99.375 C 179.363281 101.507812 180.003906 103.53125 180.589844 105.398438 C 181.066406 106.785156 181.015625 107.957031 181.121094 109.980469 C 181.121094 110.300781 181.226562 110.675781 181.335938 110.941406 C 182.988281 114.777344 183.945312 118.292969 184.691406 122.878906 C 184.796875 123.410156 185.492188 127.566406 186.929688 135.347656 C 186.984375 135.882812 187.089844 136.359375 187.089844 136.839844 C 187.144531 137.214844 187.035156 137.320312 186.824219 137.585938 C 186.769531 137.640625 186.769531 137.746094 186.769531 137.800781 C 187.035156 139.132812 187.410156 140.464844 187.941406 141.796875 C 188.527344 143.394531 189.273438 144.460938 190.765625 145.582031 C 193.164062 147.390625 194.816406 148.617188 195.777344 149.203125 C 196.46875 149.683594 197.589844 150.214844 199.1875 150.855469 C 199.292969 150.855469 199.347656 150.910156 199.402344 150.960938 L 200.414062 151.816406 C 200.625 152.027344 200.734375 152.242188 200.679688 152.507812 C 200.519531 153.308594 200.09375 153.839844 199.453125 154.105469 C 199.1875 154.160156 198.921875 154.320312 198.601562 154.425781 C 197.640625 154.90625 196.46875 154.640625 195.457031 154.160156 C 195.296875 154.054688 195.082031 154 194.925781 154 C 193.589844 154.054688 192.097656 154 191.140625 153.148438 C 190.660156 152.722656 190.394531 152.507812 190.339844 152.453125 C 190.234375 152.347656 190.128906 152.242188 189.96875 152.242188 C 188.6875 151.976562 187.675781 152.082031 185.972656 152.136719 C 184.90625 152.1875 184.050781 152.082031 183.464844 151.921875 C 180.90625 151.070312 182.507812 147.5 182.453125 146.058594 C 182.398438 145.527344 182.242188 144.835938 181.972656 143.980469 C 181.441406 142.382812 180.800781 140.835938 180.109375 139.453125 C 180.109375 139.398438 180.054688 139.34375 180.003906 139.34375 C 179.949219 139.34375 179.949219 139.34375 179.949219 139.34375 C 176.589844 139.929688 173.128906 140.464844 169.449219 140.835938 C 168.4375 140.945312 167.53125 140.996094 166.734375 140.996094 C 166.464844 140.996094 166.304688 140.835938 166.253906 140.625 C 164.867188 134.390625 163.054688 126.128906 160.710938 115.84375 C 159.75 111.527344 159.164062 107.902344 158.417969 104.226562 C 158.207031 103.054688 158.097656 102.359375 157.566406 101.347656 C 155.648438 97.777344 153.515625 94.046875 151.222656 90.210938 C 151.171875 90.210938 151.171875 90.210938 151.171875 90.210938 L 150.265625 91.808594 C 150.210938 91.863281 150.105469 91.914062 150 91.914062 C 149.945312 91.914062 149.890625 91.914062 149.839844 91.863281 C 147.761719 90.15625 145.84375 88.398438 143.921875 86.640625 C 143.605469 86.371094 143.496094 86 143.605469 85.679688 C 144.082031 84.347656 144.402344 83.335938 144.5625 82.695312 C 144.5625 82.695312 144.617188 82.640625 144.617188 82.640625 C 144.617188 82.589844 144.5625 82.480469 144.507812 82.480469 C 141.953125 80.085938 139.714844 78.164062 137.6875 75.554688 C 137.527344 75.339844 137.316406 75.234375 137.046875 75.234375 C 135.929688 75.128906 135.238281 75.179688 134.332031 74.59375 C 133.691406 74.222656 133.050781 73.636719 132.304688 72.890625 C 130.492188 71.078125 128.894531 69.480469 127.457031 68.199219 C 126.445312 67.347656 125.269531 66.546875 123.832031 65.75 C 123.191406 65.429688 121.96875 64.894531 120.101562 64.257812 C 116.476562 63.03125 113.121094 61.378906 110.03125 59.40625 C 106.777344 57.328125 104.859375 56.101562 104.378906 55.835938 C 104.0625 55.625 103.6875 55.464844 103.316406 55.355469 L 96.121094 53.4375 C 96.066406 53.4375 96.015625 53.4375 95.960938 53.492188 L 94.042969 55.996094 C 93.988281 56.050781 93.988281 56.050781 93.988281 56.101562 C 93.988281 56.15625 94.042969 56.210938 94.09375 56.210938 C 100.171875 57.914062 106.140625 60.417969 111.949219 62.925781 C 112.160156 63.03125 112.320312 63.085938 112.429688 63.191406 C 112.535156 63.296875 112.640625 63.457031 112.640625 63.617188 C 112.640625 63.671875 112.585938 63.777344 112.585938 63.832031 C 112.375 64.308594 111.894531 65.324219 111.148438 66.867188 C 110.988281 67.1875 110.722656 67.292969 110.347656 67.082031 C 104.699219 63.832031 98.625 61.484375 92.285156 59.085938 C 92.230469 59.035156 92.230469 59.035156 92.230469 59.035156 C 92.125 59.035156 92.070312 59.085938 92.015625 59.140625 L 86.902344 68.039062 C 86.847656 68.039062 86.847656 68.09375 86.847656 68.09375 C 86.847656 68.148438 86.902344 68.148438 86.902344 68.148438 C 90.632812 70.597656 94.574219 72.675781 98.570312 74.433594 C 100.332031 75.179688 101.929688 75.820312 103.476562 76.40625 C 103.632812 76.515625 103.742188 76.621094 103.742188 76.832031 C 103.742188 76.886719 103.742188 76.941406 103.6875 76.992188 L 101.554688 80.671875 C 101.503906 80.832031 101.34375 80.9375 101.183594 80.9375 C 101.128906 80.9375 101.128906 80.9375 101.078125 80.882812 C 100.863281 80.832031 100.542969 80.722656 100.171875 80.511719 C 99.957031 80.402344 98.679688 79.605469 96.28125 78.21875 C 92.601562 76.035156 88.871094 73.476562 85.460938 71.183594 C 85.355469 71.132812 85.25 71.183594 85.195312 71.238281 L 83.703125 73.210938 C 83.542969 73.371094 83.488281 73.53125 83.4375 73.796875 C 82.902344 76.671875 82.425781 79.871094 81.945312 83.386719 C 81.945312 83.386719 81.730469 84.71875 81.25 87.277344 C 80.664062 90.742188 79.601562 94.152344 78.054688 97.457031 C 77.949219 97.722656 77.894531 97.992188 77.839844 98.257812 C 77.679688 100.761719 77.679688 103.371094 77.894531 106.039062 C 78.160156 109.609375 79.066406 114.136719 79.546875 117.335938 C 79.867188 119.199219 79.917969 120.960938 79.757812 122.558594 C 79.652344 123.625 79.492188 124.53125 78.585938 125.0625 C 74.910156 127.300781 71.660156 128.953125 67.769531 129.539062 C 67.714844 129.539062 67.609375 129.59375 67.609375 129.699219 C 66.703125 132.257812 66.011719 134.867188 65.636719 137.425781 C 65.585938 137.691406 65.585938 137.960938 65.691406 138.277344 C 66.171875 139.878906 65.691406 140.835938 64.945312 142.222656 C 64.785156 142.488281 64.730469 142.753906 64.785156 143.074219 C 65.105469 144.566406 65.585938 147.230469 63.664062 147.871094 C 63.1875 147.976562 62.917969 148.085938 62.8125 148.136719 C 62.707031 148.136719 62.652344 148.191406 62.652344 148.296875 L 62.601562 149.257812 C 62.601562 149.3125 62.601562 149.363281 62.601562 149.417969 C 62.492188 149.628906 62.332031 149.898438 62.011719 150.214844 C 61.960938 150.214844 61.960938 150.269531 61.960938 150.324219 L 61.746094 151.015625 C 61.746094 151.070312 61.695312 151.175781 61.640625 151.175781 C 60.949219 151.601562 60.203125 151.707031 59.402344 151.550781 C 59.027344 151.441406 58.761719 151.230469 58.65625 150.960938 C 58.65625 150.910156 58.601562 150.855469 58.550781 150.855469 C 58.550781 150.855469 58.496094 150.855469 58.496094 150.855469 C 58.496094 150.855469 58.441406 150.960938 58.335938 151.121094 C 58.335938 151.175781 58.28125 151.230469 58.175781 151.28125 C 57.644531 151.496094 57.109375 151.550781 56.632812 151.335938 C 56.3125 151.230469 56.042969 151.175781 55.9375 151.175781 C 55.566406 151.230469 55.351562 150.960938 54.925781 150.960938 C 54.074219 151.015625 53.539062 150.535156 53.328125 149.578125 C 53.21875 148.882812 53.273438 148.296875 53.59375 147.820312 C 53.648438 147.710938 53.753906 147.660156 53.859375 147.550781 C 53.859375 147.550781 54.234375 147.339844 54.925781 146.964844 C 57.164062 145.6875 58.070312 143.289062 59.242188 141.210938 C 59.296875 141.105469 59.347656 140.945312 59.296875 140.785156 C 59.136719 139.558594 59.347656 138.4375 60.042969 137.425781 C 60.363281 136.894531 60.308594 136.148438 60.308594 135.507812 C 60.308594 133.269531 60.203125 131.191406 60.042969 129.273438 C 59.988281 129.21875 59.988281 129.113281 59.882812 129.113281 C 59.617188 128.847656 59.457031 128.632812 59.402344 128.421875 C 58.65625 122.664062 58.550781 117.015625 59.082031 111.527344 C 59.5625 106.730469 60.679688 102.308594 63.453125 98.308594 C 63.558594 98.148438 63.613281 97.9375 63.613281 97.777344 C 63.453125 91.277344 63.613281 84.988281 64.09375 78.910156 C 64.09375 78.699219 64.09375 78.273438 64.09375 77.632812 C 64.09375 77.632812 64.039062 77.578125 64.039062 77.578125 C 64.039062 77.578125 63.984375 77.578125 63.984375 77.578125 C 62.707031 78.910156 61.855469 80.457031 61.480469 82.324219 C 61.425781 82.480469 61.265625 82.589844 61.109375 82.535156 C 60.949219 82.480469 60.839844 82.375 60.839844 82.164062 C 60.574219 80.722656 60.414062 79.230469 60.414062 77.792969 C 60.46875 73.847656 60.789062 69.851562 61.425781 65.75 C 61.480469 65.75 61.425781 65.695312 61.425781 65.695312 C 59.882812 65.054688 59.457031 64.363281 58.550781 63.242188 C 58.496094 63.191406 58.390625 63.136719 58.335938 63.136719 C 56.152344 63.191406 54.125 62.816406 52.207031 61.910156 C 51.25 61.484375 50.449219 60.632812 49.648438 59.832031 C 49.117188 59.300781 48.582031 58.765625 48.105469 58.128906 C 47.996094 57.96875 47.835938 57.808594 47.625 57.753906 C 46.453125 57.167969 44.960938 56.582031 43.789062 55.941406 C 42.988281 55.464844 41.710938 54.824219 39.949219 53.972656 C 38.777344 53.386719 37.820312 52.585938 36.914062 51.945312 C 36.753906 51.785156 36.539062 51.839844 36.433594 52 C 36.378906 52.050781 36.378906 52.050781 36.378906 52.050781 C 35.953125 52.851562 35.527344 53.4375 34.675781 53.703125 C 33.875 53.972656 32.808594 54.34375 31.316406 54.769531 C 31.15625 54.824219 30.996094 54.929688 30.890625 55.089844 L 30.089844 56.101562 C 30.039062 56.15625 30.039062 56.15625 30.039062 56.15625 C 30.039062 56.210938 30.089844 56.210938 30.089844 56.261719 C 30.304688 56.476562 30.519531 56.636719 30.675781 56.636719 C 32.328125 57.167969 34.25 57.488281 33.929688 59.40625 C 33.929688 59.511719 33.980469 59.621094 34.089844 59.621094 L 35.847656 59.886719 C 35.953125 59.886719 36.058594 59.886719 36.113281 59.832031 C 37.765625 58.820312 39.257812 57.753906 40.910156 57.488281 C 41.601562 57.328125 42.1875 57.542969 42.933594 57.808594 C 44.160156 58.234375 45.972656 59.195312 46.238281 60.472656 C 46.34375 60.847656 46.132812 61.273438 45.972656 61.699219 C 45.917969 61.75 45.917969 61.859375 45.972656 61.910156 C 46.292969 62.871094 46.027344 63.511719 45.171875 63.832031 C 45.066406 63.832031 45.011719 63.9375 45.011719 63.988281 C 45.011719 64.042969 45.011719 64.148438 45.011719 64.257812 C 45.066406 64.417969 45.066406 64.46875 45.066406 64.523438 C 44.800781 65.429688 44.214844 65.800781 43.253906 65.640625 C 43.203125 65.640625 43.148438 65.695312 43.09375 65.75 C 42.933594 66.921875 42.296875 67.347656 41.121094 67.027344 C 40.164062 66.707031 39.472656 66.441406 38.9375 66.175781 C 38.777344 66.121094 38.566406 66.070312 38.40625 66.121094 C 36.804688 66.386719 35.152344 66.121094 33.503906 65.324219 C 33.449219 65.269531 33.449219 65.269531 33.394531 65.269531 C 33.34375 65.269531 33.289062 65.324219 33.289062 65.375 C 31.050781 68.359375 28.28125 70.652344 24.921875 72.089844 C 24.816406 72.144531 24.710938 72.144531 24.65625 72.144531 C 24.441406 72.144531 24.28125 72.089844 24.175781 71.984375 C 21.882812 69.640625 19.859375 67.1875 18.046875 64.628906 C 16.929688 63.03125 16.074219 61.378906 15.808594 59.300781 C 15.703125 58.609375 15.757812 57.648438 15.914062 56.527344 C 16.074219 55.515625 16.183594 54.503906 16.234375 53.4375 C 16.289062 51.679688 16.820312 50.292969 17.40625 48.695312 C 18.582031 45.765625 20.820312 43.578125 23.21875 41.714844 C 23.429688 41.605469 23.535156 41.339844 23.589844 41.128906 C 23.75 40.222656 24.175781 39.367188 24.816406 38.621094 C 24.816406 38.570312 24.816406 38.570312 24.816406 38.570312 L 25.667969 37.929688 C 25.828125 37.769531 25.933594 37.664062 26.042969 37.449219 C 26.949219 36.117188 27.585938 35.265625 27.851562 34.890625 C 29.398438 32.921875 31.53125 30.84375 34.355469 28.65625 C 34.40625 28.605469 34.40625 28.605469 34.40625 28.550781 L 35.898438 26.84375 C 35.898438 26.792969 35.953125 26.738281 35.953125 26.6875 C 36.058594 24.605469 36.378906 22.957031 36.859375 21.78125 C 37.339844 20.71875 39.257812 19.652344 40.375 19.117188 C 40.535156 19.066406 40.644531 18.957031 40.644531 18.796875 C 40.855469 17.359375 40.644531 16.027344 40.058594 14.855469 C 39.097656 12.882812 38.246094 11.550781 38.351562 9.472656 C 38.351562 9.417969 38.296875 9.367188 38.246094 9.367188 C 38.246094 9.367188 38.191406 9.367188 38.191406 9.417969 L 37.980469 9.578125 C 37.925781 9.578125 37.925781 9.632812 37.925781 9.632812 C 37.871094 9.632812 37.820312 9.578125 37.820312 9.527344 C 38.03125 8.351562 38.457031 7.289062 39.152344 6.328125 C 39.152344 6.328125 39.152344 6.328125 39.152344 6.273438 C 39.152344 6.222656 39.097656 6.167969 39.042969 6.167969 C 38.882812 6.167969 38.671875 6.222656 38.457031 6.382812 C 38.457031 6.382812 38.40625 6.382812 38.40625 6.382812 C 38.351562 6.382812 38.296875 6.328125 38.296875 6.273438 C 38.296875 6.222656 38.296875 6.222656 38.351562 6.222656 C 38.992188 5.261719 39.789062 4.515625 40.804688 3.929688 C 40.855469 3.875 40.855469 3.875 40.855469 3.824219 C 40.855469 3.769531 40.804688 3.714844 40.75 3.714844 C 40.375 3.714844 40.003906 3.824219 39.578125 4.035156 C 39.578125 4.035156 39.578125 4.035156 39.523438 4.035156 C 39.472656 4.035156 39.472656 3.984375 39.472656 3.929688 C 40.109375 3.078125 40.910156 2.757812 41.867188 2.863281 C 41.921875 2.863281 41.976562 2.8125 41.976562 2.757812 C 41.976562 2.757812 41.976562 2.703125 41.976562 2.703125 C 41.867188 2.492188 41.65625 2.222656 41.390625 2.011719 C 41.390625 1.957031 41.390625 1.957031 41.335938 1.90625 C 41.335938 1.851562 41.390625 1.746094 41.441406 1.746094 C 41.496094 1.746094 41.496094 1.746094 41.550781 1.746094 C 41.921875 1.796875 42.242188 1.90625 42.613281 2.117188 C 42.667969 2.171875 42.773438 2.117188 42.828125 2.066406 C 43.519531 1.160156 44.480469 0.359375 45.652344 0.199219 C 45.707031 0.199219 45.757812 0.253906 45.757812 0.304688 C 45.757812 0.359375 45.757812 0.414062 45.707031 0.414062 C 45.226562 0.785156 44.851562 1.210938 44.640625 1.636719 C 44.640625 1.691406 44.695312 1.746094 44.746094 1.746094 C 44.746094 1.746094 44.800781 1.746094 44.800781 1.746094 C 45.652344 1.160156 46.292969 0.625 47.464844 0.574219 C 48.371094 0.574219 49.488281 0.625 50.714844 0.839844 C 50.875 0.839844 51.035156 0.839844 51.140625 0.839844 L 52.367188 0.730469 C 52.472656 0.730469 52.527344 0.785156 52.527344 0.890625 L 52.527344 1.265625 C 52.527344 1.371094 52.582031 1.425781 52.6875 1.425781 L 55.296875 1.425781 C 55.296875 1.425781 55.351562 1.425781 55.351562 1.425781 C 55.40625 1.476562 55.457031 1.53125 55.40625 1.636719 C 55.40625 1.636719 55.40625 1.636719 55.40625 1.691406 C 55.296875 1.796875 55.140625 1.90625 54.925781 1.957031 C 54.925781 1.957031 54.925781 1.957031 54.925781 2.011719 C 54.871094 2.011719 54.871094 2.066406 54.925781 2.066406 C 54.925781 2.066406 54.925781 2.117188 54.980469 2.117188 C 56.472656 2.222656 57.804688 2.652344 58.976562 3.503906 C 59.027344 3.503906 59.027344 3.558594 59.027344 3.558594 C 59.027344 3.609375 58.976562 3.609375 58.976562 3.609375 L 56.898438 3.503906 C 56.84375 3.503906 56.789062 3.503906 56.789062 3.558594 C 56.789062 3.609375 56.789062 3.609375 56.84375 3.664062 C 57.269531 3.875 57.484375 3.984375 57.589844 4.035156 C 58.761719 4.621094 59.722656 5.421875 60.414062 6.488281 C 60.414062 6.488281 60.46875 6.488281 60.46875 6.542969 C 60.46875 6.59375 60.414062 6.648438 60.363281 6.648438 C 60.363281 6.648438 60.308594 6.648438 60.308594 6.59375 L 58.761719 5.742188 C 58.761719 5.6875 58.710938 5.6875 58.710938 5.6875 C 58.65625 5.6875 58.601562 5.742188 58.601562 5.796875 C 58.601562 5.847656 58.601562 5.902344 58.601562 5.902344 C 59.347656 6.808594 59.933594 8.085938 59.882812 9.3125 C 59.882812 9.367188 59.828125 9.417969 59.773438 9.417969 C 59.722656 9.417969 59.722656 9.367188 59.667969 9.367188 C 59.507812 8.992188 59.296875 8.78125 59.027344 8.566406 C 59.027344 8.566406 59.027344 8.566406 58.976562 8.566406 C 58.921875 8.566406 58.921875 8.566406 58.921875 8.621094 C 59.082031 9.417969 59.082031 10.164062 58.871094 10.804688 C 58.871094 10.859375 58.761719 10.910156 58.710938 10.910156 C 58.601562 10.910156 58.550781 10.910156 58.496094 10.804688 L 57.484375 8.78125 C 57.484375 8.726562 57.429688 8.726562 57.429688 8.726562 C 57.378906 8.726562 57.378906 8.726562 57.324219 8.78125 L 57.484375 10.113281 C 57.484375 10.113281 57.484375 10.113281 57.484375 10.164062 C 57.378906 11.070312 57.269531 11.65625 57.269531 11.921875 C 57.269531 12.402344 57.058594 12.722656 56.738281 12.988281 C 56.578125 13.097656 56.523438 13.257812 56.578125 13.46875 C 56.949219 14.375 57.429688 15.28125 58.070312 16.242188 C 58.65625 17.199219 57.429688 17.890625 56.632812 17.890625 C 56.578125 17.890625 56.578125 17.890625 56.578125 17.945312 C 56.363281 17.945312 56.257812 18.105469 56.3125 18.320312 C 56.3125 18.320312 56.3125 18.371094 56.3125 18.371094 L 56.578125 19.226562 C 56.632812 19.4375 56.578125 19.652344 56.417969 19.757812 L 55.832031 20.183594 C 55.777344 20.238281 55.777344 20.289062 55.726562 20.34375 C 55.617188 20.609375 55.671875 20.875 55.9375 21.035156 C 55.992188 21.035156 56.042969 21.035156 56.152344 21.035156 C 57.003906 21.144531 58.28125 21.25 60.042969 21.410156 C 61.746094 21.570312 63.027344 21.835938 63.773438 22.210938 C 67.183594 23.96875 68.460938 28.070312 69.742188 31.429688 C 69.847656 31.75 70.113281 32.015625 70.539062 32.226562 C 71.925781 32.867188 73.417969 33.667969 74.910156 34.679688 C 74.964844 34.679688 74.964844 34.679688 74.964844 34.679688 C 75.015625 34.679688 75.070312 34.679688 75.125 34.625 C 75.335938 34.039062 75.335938 33.398438 75.125 32.761719 C 74.855469 31.855469 74.058594 31.054688 74.484375 29.828125 C 74.695312 29.136719 75.601562 29.082031 76.1875 28.816406 C 76.296875 28.765625 76.402344 28.65625 76.457031 28.496094 C 76.777344 27.433594 77.574219 26.6875 78.746094 26.257812 C 79.226562 26.097656 79.757812 26.097656 80.238281 26.367188 C 80.773438 26.6875 80.824219 26.738281 81.410156 26.84375 C 81.996094 26.898438 82.425781 27.113281 82.691406 27.484375 C 83.117188 28.019531 83.757812 27.859375 84.023438 28.496094 C 84.234375 28.921875 84.449219 29.296875 84.664062 29.617188 C 84.769531 29.722656 84.824219 29.9375 84.824219 30.097656 C 84.875 30.84375 85.25 31.800781 84.769531 32.652344 C 84.503906 33.082031 83.96875 33.828125 83.222656 34.839844 C 83.011719 35.105469 82.796875 35.320312 82.53125 35.480469 C 81.839844 35.90625 80.824219 36.597656 80.503906 37.398438 C 80.503906 37.449219 80.558594 37.503906 80.613281 37.503906 C 84.128906 35.796875 87.753906 34.464844 91.539062 33.828125 C 91.695312 33.828125 91.855469 33.773438 92.015625 33.667969 C 94.949219 31.855469 97.238281 30.363281 100.117188 29.296875 C 100.382812 29.242188 100.648438 29.082031 100.863281 28.871094 C 101.449219 28.285156 101.984375 27.75 102.460938 27.324219 C 103.6875 26.257812 105.5 25.78125 107.097656 25.671875 C 107.207031 25.671875 107.363281 25.566406 107.417969 25.460938 C 108.429688 23.433594 109.601562 21.195312 110.988281 18.746094 C 112.320312 16.347656 113.761719 14.855469 115.945312 13.308594 C 118.875 11.175781 122.074219 9.257812 125.484375 7.554688 C 125.75 7.445312 126.015625 7.5 126.230469 7.660156 C 127.882812 9.207031 129.160156 11.125 130.332031 13.097656 C 130.386719 13.203125 130.546875 13.203125 130.652344 13.203125 C 132.519531 12.351562 134.597656 11.550781 136.890625 10.644531 C 137.15625 10.539062 137.421875 10.589844 137.6875 10.859375 C 137.742188 10.964844 137.847656 10.964844 137.953125 10.910156 C 138.914062 10.484375 139.554688 10.003906 139.875 9.417969 C 140.566406 8.246094 140.992188 7.394531 142.324219 6.96875 C 144.082031 6.433594 145.523438 5.582031 146.746094 4.460938 C 147.761719 3.558594 148.453125 2.96875 148.71875 2.8125 C 149.464844 2.382812 150.105469 1.957031 150.585938 1.585938 C 151.4375 1 152.558594 0.574219 153.195312 1.585938 C 153.25 1.636719 153.355469 1.691406 153.460938 1.636719 C 154.207031 1.320312 154.742188 1.476562 155.113281 2.117188 C 155.167969 2.332031 155.167969 2.492188 155.0625 2.652344 C 155.0625 2.703125 155.0625 2.703125 155.0625 2.703125 C 155.0625 2.757812 155.0625 2.8125 155.113281 2.8125 C 155.222656 2.863281 155.433594 2.757812 155.648438 2.8125 C 156.5 3.289062 155.96875 4.144531 155.382812 4.675781 Z M 165.292969 44.324219 C 165.347656 44.273438 165.347656 44.273438 165.347656 44.273438 C 165.347656 44.21875 165.292969 44.164062 165.242188 44.164062 C 165.1875 44.164062 165.1875 44.164062 165.1875 44.164062 C 163.75 44.433594 162.628906 44.699219 161.777344 44.804688 C 161.351562 44.910156 160.765625 44.804688 160.070312 44.589844 C 158.578125 44.164062 157.191406 43.632812 155.859375 42.886719 C 155.59375 42.78125 155.328125 42.726562 155.0625 42.726562 C 152.664062 42.832031 150.050781 42.992188 147.867188 42.566406 C 145.628906 42.195312 143.496094 41.714844 141.578125 41.234375 C 141.152344 41.128906 140.777344 40.96875 140.511719 40.808594 C 140.40625 40.753906 140.300781 40.59375 140.351562 40.433594 C 140.566406 39.316406 140.726562 38.304688 140.726562 37.238281 C 140.777344 34.734375 140.832031 32.761719 140.992188 31.269531 C 140.992188 31.160156 140.9375 31.054688 140.832031 31.054688 C 139.5 30.308594 137.207031 29.191406 135.769531 29.402344 C 134.652344 29.511719 133.636719 29.617188 132.730469 29.722656 C 132.570312 29.722656 132.414062 29.777344 132.304688 29.828125 C 131.824219 30.097656 131.132812 30.46875 130.546875 30.257812 C 129.535156 29.777344 128.683594 28.230469 128.308594 27.164062 C 128.253906 27.113281 128.253906 27.113281 128.203125 27.113281 C 128.148438 27.113281 128.148438 27.113281 128.148438 27.113281 C 127.828125 27.324219 127.617188 27.484375 127.351562 27.644531 C 121.273438 32.28125 114.984375 36.757812 108.539062 41.074219 C 108.539062 41.128906 108.539062 41.128906 108.539062 41.128906 C 108.539062 41.179688 108.539062 41.179688 108.589844 41.179688 C 115.144531 42.195312 121.808594 44.058594 128.042969 46.082031 C 129.054688 46.457031 130.226562 46.722656 131.613281 46.988281 C 137.742188 48.164062 143.976562 49.867188 150.371094 52.105469 C 151.277344 52.425781 151.917969 52.796875 152.984375 53.226562 C 153.035156 53.277344 153.144531 53.277344 153.25 53.226562 C 154.367188 52.746094 155.648438 52.53125 156.820312 53.117188 C 156.925781 53.171875 157.035156 53.117188 157.035156 53.011719 C 157.726562 51.625 158.207031 50.613281 158.472656 50.082031 C 158.953125 49.015625 159.429688 48.003906 160.445312 47.84375 C 161.667969 47.683594 162.46875 47.523438 162.789062 47.417969 C 163.960938 46.9375 164.867188 45.496094 165.292969 44.324219 Z M 189.433594 66.441406 L 190.234375 67.082031 C 190.234375 67.082031 190.234375 67.082031 190.289062 67.082031 C 190.289062 67.082031 190.339844 67.027344 190.339844 67.027344 C 190.339844 67.027344 190.339844 66.972656 190.339844 66.972656 L 190.074219 66.226562 C 190.074219 66.175781 190.019531 66.175781 189.96875 66.175781 C 189.914062 66.175781 189.914062 66.175781 189.914062 66.175781 L 189.433594 66.335938 C 189.433594 66.335938 189.382812 66.335938 189.382812 66.386719 C 189.382812 66.386719 189.433594 66.441406 189.433594 66.441406 Z M 189.433594 66.441406 " fill-opacity="1" fill-rule="evenodd"/></g><g clip-path="url(#f295f2aa75)"><path fill="#ee202d" d="M 770.089844 11.214844 C 770.089844 11.214844 770.089844 11.214844 770.089844 11.351562 C 770.089844 11.351562 770.089844 11.351562 770.226562 11.351562 C 770.636719 11.078125 771.59375 10.941406 771.871094 11.488281 C 772.007812 11.625 772.007812 11.898438 771.871094 12.035156 C 771.59375 12.308594 771.457031 12.445312 771.320312 12.445312 C 771.320312 12.445312 771.320312 12.582031 771.320312 12.582031 C 771.320312 12.582031 771.457031 12.582031 771.871094 12.445312 C 773.101562 12.308594 772.964844 13.679688 772.144531 13.816406 C 772.007812 13.816406 771.871094 13.816406 771.871094 13.816406 C 771.871094 13.816406 771.871094 13.816406 771.871094 13.953125 C 772.144531 14.089844 772.828125 13.679688 772.964844 14.226562 C 773.238281 14.773438 772.691406 15.320312 772.144531 15.457031 C 772.144531 15.457031 772.144531 15.457031 772.007812 15.457031 C 772.007812 15.457031 772.007812 15.457031 772.007812 15.59375 C 772.007812 15.59375 772.144531 15.59375 772.144531 15.59375 C 773.375 16.003906 772.144531 17.097656 771.457031 17.234375 C 771.457031 17.371094 771.457031 17.371094 771.457031 17.371094 C 771.457031 17.371094 771.457031 17.371094 771.457031 17.507812 L 771.734375 18.054688 C 771.734375 18.054688 771.734375 18.191406 771.734375 18.191406 C 771.457031 18.738281 771.183594 19.011719 770.910156 19.148438 C 769.953125 19.558594 769.269531 19.96875 768.859375 20.378906 C 768.449219 20.652344 768.039062 20.789062 767.628906 21.0625 C 767.628906 21.0625 767.628906 21.0625 767.628906 21.199219 L 772.417969 21.0625 C 772.554688 21.0625 772.554688 21.0625 772.554688 21.0625 L 774.195312 21.472656 C 774.332031 21.472656 774.46875 21.472656 774.605469 21.472656 C 777.75 20.925781 780.761719 20.789062 783.496094 22.566406 C 783.90625 22.703125 784.453125 22.84375 785.136719 22.980469 C 785.136719 22.980469 785.273438 22.980469 785.273438 22.980469 C 785.273438 22.980469 785.273438 22.980469 785.273438 22.84375 C 785.136719 22.429688 785 22.15625 785 21.882812 C 785 21.882812 785 21.882812 785 21.746094 C 785 21.746094 785 21.609375 784.863281 21.609375 C 784.042969 21.472656 783.769531 21.0625 784.042969 20.652344 C 784.316406 19.96875 784.726562 19.148438 785.136719 18.191406 C 785.410156 17.507812 785.136719 17.234375 784.726562 16.550781 C 784.726562 16.550781 784.726562 16.414062 784.726562 16.414062 L 785.136719 13.402344 C 785.136719 13.265625 785 13.128906 785 12.992188 C 784.179688 11.625 784.589844 10.257812 785.546875 9.027344 C 786.09375 8.070312 787.050781 8.070312 788.007812 7.796875 C 788.691406 7.660156 789.511719 7.25 790.335938 7.113281 C 791.703125 6.839844 792.933594 6.292969 794.164062 6.15625 C 795.394531 6.019531 796.625 6.15625 797.582031 6.566406 C 798.402344 6.839844 798.8125 6.976562 798.953125 6.976562 C 800.183594 7.386719 801.277344 7.796875 801.824219 8.890625 C 802.234375 9.300781 802.234375 9.847656 802.507812 10.394531 C 802.507812 10.667969 802.644531 10.804688 802.78125 10.941406 C 803.328125 11.761719 803.738281 12.445312 803.738281 13.402344 C 803.875 15.457031 803.328125 17.507812 802.917969 19.285156 C 802.644531 20.789062 801.550781 22.292969 801.414062 23.9375 C 801.277344 25.03125 801.277344 26.125 801.277344 27.21875 C 801.277344 27.355469 801.277344 27.355469 801.414062 27.492188 C 802.234375 27.765625 803.738281 28.039062 804.148438 28.585938 C 804.285156 28.722656 804.285156 28.722656 804.285156 28.859375 L 804.011719 32.554688 C 804.011719 32.554688 804.011719 32.691406 804.148438 32.828125 C 804.695312 33.785156 805.242188 34.46875 805.378906 34.742188 C 806.609375 36.246094 807.292969 37.339844 808.527344 38.570312 C 808.800781 38.980469 809.347656 39.527344 809.894531 40.347656 C 811.125 42.128906 811.671875 43.769531 811.671875 45.957031 C 811.671875 48.007812 811.398438 50.199219 810.714844 52.25 C 810.167969 54.027344 809.894531 55.53125 808.800781 56.761719 C 808.664062 56.898438 808.527344 57.035156 808.527344 57.171875 C 808.390625 57.71875 808.253906 58.402344 807.980469 58.949219 C 806.609375 62.234375 804.96875 65.378906 803.328125 68.527344 C 802.917969 69.210938 802.371094 69.757812 801.6875 70.304688 C 800.183594 71.398438 798.8125 72.082031 797.582031 72.628906 C 795.121094 73.449219 792.25 74.132812 789.238281 74.679688 C 788.417969 74.816406 788.007812 74.269531 787.734375 73.585938 C 786.640625 70.988281 786.640625 68.113281 787.460938 65.378906 C 787.460938 65.242188 787.324219 65.105469 787.1875 65.105469 L 784.453125 64.695312 C 784.453125 64.695312 784.316406 64.695312 784.316406 64.695312 L 782.265625 66.0625 C 782.128906 66.199219 781.992188 66.199219 781.992188 66.335938 C 781.855469 66.472656 781.71875 66.609375 781.582031 67.019531 C 781.035156 67.839844 779.390625 67.976562 778.570312 67.429688 C 778.433594 67.292969 778.296875 67.292969 778.160156 67.292969 C 777.75 67.429688 777.203125 67.566406 776.792969 67.703125 C 776.65625 67.703125 776.65625 67.839844 776.65625 67.839844 C 776.65625 68.113281 777.066406 69.074219 777.886719 70.851562 C 779.800781 75.089844 782.8125 77.964844 787.050781 79.878906 C 790.335938 81.246094 793.753906 82.066406 797.445312 82.203125 C 797.582031 82.203125 797.582031 82.203125 797.582031 82.339844 C 797.308594 83.980469 796.761719 85.621094 795.804688 87.128906 C 795.804688 87.265625 795.667969 87.265625 795.53125 87.265625 C 793.617188 86.582031 790.0625 85.757812 787.734375 84.800781 C 785.820312 83.84375 784.042969 82.75 782.675781 81.382812 C 779.253906 78.238281 777.066406 74.269531 775.5625 69.757812 C 775.5625 69.621094 775.425781 69.484375 775.425781 69.347656 C 775.425781 69.347656 775.425781 69.347656 775.289062 69.347656 C 775.289062 69.347656 775.152344 69.347656 775.152344 69.484375 C 775.015625 69.621094 774.878906 69.757812 774.742188 69.894531 C 774.605469 69.894531 774.605469 70.03125 774.605469 70.03125 C 774.742188 70.714844 774.878906 71.125 774.878906 71.261719 C 775.425781 72.765625 775.699219 73.722656 775.699219 74.132812 C 775.835938 75.363281 775.972656 76.730469 775.972656 78.238281 C 775.972656 78.648438 776.109375 78.921875 776.382812 79.195312 C 776.65625 79.605469 777.066406 80.152344 777.886719 80.972656 C 777.886719 81.109375 778.023438 81.246094 777.886719 81.382812 C 777.476562 82.886719 777.066406 84.390625 776.519531 85.894531 C 776.382812 86.582031 776.109375 87.128906 775.835938 87.675781 C 775.835938 87.8125 775.835938 87.8125 775.699219 87.8125 C 775.699219 87.8125 775.699219 87.8125 775.5625 87.8125 L 773.238281 85.347656 C 773.238281 90.820312 773.101562 96.15625 772.28125 101.488281 C 772.28125 102.035156 772.28125 102.71875 772.28125 103.265625 C 772.417969 104.910156 772.554688 106.003906 772.417969 106.824219 C 772.417969 109.695312 771.046875 112.15625 769.542969 114.621094 C 769.132812 115.441406 768.859375 116.261719 768.859375 117.355469 C 768.722656 119.132812 768.585938 120.089844 768.449219 120.636719 C 767.355469 125.289062 766.671875 130.074219 766.125 135 C 766.125 135.136719 765.988281 135.273438 765.851562 135.410156 C 765.167969 135.683594 764.621094 135.820312 764.210938 135.683594 C 764.074219 135.683594 763.9375 135.820312 763.9375 135.820312 C 763.527344 138.28125 763.800781 142.660156 766.261719 143.890625 C 768.3125 145.121094 770.089844 146.078125 771.457031 147.035156 C 771.734375 147.171875 771.871094 147.308594 772.007812 147.308594 C 772.691406 147.582031 773.511719 147.855469 774.605469 148.128906 C 775.152344 148.265625 775.425781 148.675781 776.109375 148.675781 C 776.246094 148.675781 776.382812 148.8125 776.519531 148.949219 C 777.066406 150.457031 775.5625 150.730469 774.332031 150.730469 C 773.511719 150.867188 772.964844 150.730469 771.871094 150.59375 C 771.734375 150.59375 771.734375 150.59375 771.59375 150.59375 L 770.910156 150.867188 C 770.910156 150.867188 770.773438 150.867188 770.636719 150.867188 C 769.40625 151.003906 768.3125 150.867188 767.21875 150.730469 C 764.621094 150.183594 761.882812 150.046875 759.148438 150.457031 C 758.191406 150.59375 756.960938 150.59375 755.867188 150.457031 C 754.5 150.320312 753.816406 149.496094 753.953125 147.992188 C 754.089844 146.351562 754.5 145.257812 755.320312 143.207031 C 755.59375 142.25 755.867188 141.15625 755.867188 139.921875 C 756.140625 137.597656 756.277344 135.273438 756.140625 133.085938 C 756.140625 132.949219 756.140625 132.949219 756.003906 132.949219 C 753.542969 131.71875 751.898438 131.167969 750.257812 129.9375 C 750.121094 129.9375 750.121094 129.800781 750.121094 129.800781 C 750.121094 129.800781 750.121094 129.800781 750.121094 129.664062 C 751.898438 121.320312 753.542969 114.074219 754.910156 107.78125 C 755.59375 104.085938 756.140625 100.394531 756.003906 96.703125 C 756.003906 96.019531 755.867188 95.195312 755.730469 94.101562 C 754.910156 89.726562 754.363281 87.128906 754.226562 86.445312 C 753.265625 81.246094 752.445312 75.773438 751.898438 70.03125 C 751.898438 69.757812 751.761719 69.621094 751.625 69.347656 C 750.121094 66.746094 748.753906 64.148438 747.523438 61.414062 C 747.386719 61.277344 747.25 61.003906 747.113281 60.867188 L 735.625 46.09375 C 735.625 45.957031 735.488281 45.957031 735.351562 45.957031 C 732.066406 48.417969 728.921875 50.882812 725.5 53.617188 C 724.542969 54.4375 723.585938 55.394531 722.628906 56.351562 C 721.398438 57.71875 718.9375 60.320312 715.378906 64.285156 C 715.378906 64.285156 715.378906 64.285156 715.378906 64.421875 C 715.378906 64.421875 715.378906 64.421875 715.515625 64.421875 C 719.210938 65.242188 722.628906 66.472656 726.046875 68.113281 C 726.597656 68.390625 727.28125 68.664062 727.691406 69.074219 C 727.828125 69.210938 727.828125 69.347656 727.828125 69.484375 L 725.363281 72.355469 C 725.363281 72.492188 725.226562 72.492188 725.089844 72.492188 C 725.089844 72.492188 724.953125 72.492188 724.953125 72.492188 C 721.398438 70.03125 717.570312 68.253906 713.328125 67.019531 C 713.191406 67.019531 713.054688 67.019531 712.917969 67.15625 L 708.679688 72.355469 C 708.679688 72.355469 708.679688 72.492188 708.679688 72.628906 C 711.140625 76.457031 714.558594 79.605469 718.117188 82.339844 C 718.253906 82.339844 718.390625 82.476562 718.390625 82.613281 C 718.390625 82.75 718.253906 82.886719 718.253906 82.886719 L 715.515625 85.621094 C 715.378906 85.757812 715.242188 85.757812 715.105469 85.757812 C 711.6875 82.75 708.816406 79.332031 706.488281 75.363281 C 706.351562 75.363281 706.351562 75.363281 706.214844 75.363281 L 703.890625 77.964844 C 703.890625 78.101562 703.890625 78.101562 703.890625 78.101562 C 703.480469 79.46875 702.660156 81.382812 701.429688 83.84375 C 701.019531 84.664062 700.882812 85.484375 700.746094 86.308594 C 700.609375 86.71875 700.335938 88.90625 699.789062 93.007812 C 699.515625 94.785156 698.828125 96.839844 698.417969 98.617188 C 697.460938 101.761719 696.640625 104.636719 695.683594 107.234375 C 694.863281 109.832031 694.179688 111.609375 693.769531 112.566406 C 692.949219 114.210938 692.402344 115.441406 691.992188 116.125 C 691.171875 117.492188 690.625 118.585938 690.214844 119.542969 C 688.980469 123.101562 687.339844 126.382812 685.5625 129.390625 C 685.152344 129.9375 684.195312 131.578125 682.417969 134.453125 C 682.144531 134.863281 680.773438 134.863281 680.226562 135 C 680.089844 135 679.953125 135 679.953125 135.136719 C 678.722656 137.871094 678.039062 140.332031 677.628906 142.660156 C 677.492188 143.617188 677.492188 144.4375 677.902344 145.394531 C 678.3125 146.898438 678.722656 147.992188 679.132812 149.085938 C 679.542969 149.769531 680.089844 151.003906 680.914062 151.277344 C 681.050781 151.414062 681.460938 151.550781 682.007812 151.6875 C 682.144531 151.6875 682.144531 151.6875 682.28125 151.6875 L 682.691406 152.234375 C 682.828125 152.371094 682.964844 152.507812 683.101562 152.507812 L 684.195312 152.78125 C 684.332031 152.78125 684.46875 152.78125 684.46875 152.917969 C 684.332031 153.875 683.921875 154.285156 683.238281 154.285156 C 682.964844 154.285156 682.691406 154.285156 682.554688 154.285156 C 682.28125 154.421875 682.007812 154.421875 681.871094 154.421875 C 681.871094 154.285156 681.734375 154.285156 681.734375 154.421875 C 681.1875 154.832031 680.636719 154.695312 680.089844 154.421875 C 680.089844 154.421875 679.953125 154.421875 679.816406 154.558594 C 679.132812 154.96875 678.3125 155.105469 677.355469 154.96875 C 677.21875 154.96875 676.808594 154.695312 676.125 154.148438 C 674.894531 153.328125 674.074219 152.917969 673.390625 151.824219 C 672.707031 151.003906 672.160156 150.183594 671.472656 149.632812 C 671.199219 149.222656 670.378906 148.675781 669.011719 147.582031 C 668.464844 147.171875 667.644531 146.351562 666.6875 145.394531 C 665.730469 144.164062 665.730469 142.933594 666.6875 141.703125 C 667.371094 140.882812 668.054688 140.195312 669.011719 139.785156 C 669.011719 139.648438 669.148438 139.511719 669.285156 139.511719 C 670.515625 137.324219 671.472656 135 672.160156 132.539062 C 672.160156 132.402344 672.160156 132.265625 672.023438 132.265625 C 670.789062 131.167969 669.695312 129.800781 669.011719 128.296875 C 668.875 128.160156 668.875 128.160156 668.875 128.023438 C 669.011719 127.886719 669.011719 127.613281 669.148438 127.476562 C 670.105469 125.5625 670.925781 123.921875 671.472656 122.691406 C 672.023438 121.730469 673.117188 121.046875 674.074219 120.226562 C 674.484375 119.953125 674.894531 119.542969 675.03125 118.996094 C 675.714844 117.21875 676.535156 115.441406 677.492188 113.664062 C 677.628906 113.386719 677.628906 113.25 677.628906 112.976562 C 677.628906 112.429688 677.902344 111.0625 678.3125 108.875 C 678.722656 107.644531 679.269531 106.550781 679.953125 105.59375 C 680.636719 104.910156 681.050781 104.359375 681.460938 103.8125 C 681.597656 103.675781 681.597656 103.675781 681.597656 103.675781 L 682.417969 103.128906 C 682.417969 103.128906 682.554688 102.992188 682.554688 102.855469 C 682.554688 102.445312 682.417969 101.898438 682.28125 101.351562 C 682.28125 100.804688 682.28125 100.394531 682.554688 99.847656 C 683.101562 99.164062 683.648438 98.617188 684.195312 98.070312 C 684.195312 98.070312 684.332031 97.933594 684.195312 97.933594 C 683.648438 94.511719 683.238281 91.367188 683.101562 88.222656 C 683.101562 87.8125 682.964844 87.539062 682.964844 87.265625 C 682.828125 86.71875 682.554688 86.167969 682.417969 85.621094 C 682.417969 85.484375 682.417969 85.210938 682.417969 84.800781 C 682.691406 83.980469 682.554688 83.160156 682.28125 82.476562 C 681.324219 80.289062 680.636719 78.785156 680.363281 77.828125 C 680.226562 77.554688 680.226562 77.417969 680.089844 77.140625 C 679.542969 76.457031 678.996094 75.363281 678.3125 74.269531 C 678.175781 73.859375 678.039062 73.3125 678.175781 72.902344 C 678.449219 71.945312 678.722656 70.851562 678.996094 69.621094 C 678.996094 69.621094 678.996094 69.484375 678.996094 69.484375 L 677.492188 67.15625 C 677.355469 67.15625 677.355469 67.019531 677.21875 67.019531 C 677.082031 67.019531 677.082031 67.019531 677.082031 67.019531 C 676.398438 67.292969 675.304688 67.976562 674.210938 67.703125 C 672.570312 67.292969 671.0625 66.335938 669.695312 65.652344 C 668.054688 64.96875 666.550781 63.875 665.183594 62.507812 C 663.816406 61.003906 662.171875 59.5 660.53125 58.128906 C 659.984375 57.582031 659.574219 57.308594 659.300781 57.308594 C 659.300781 57.308594 659.164062 57.308594 659.164062 57.308594 L 657.523438 57.992188 C 657.25 58.128906 657.113281 58.265625 656.976562 58.402344 C 656.15625 59.226562 655.472656 60.183594 654.925781 60.867188 C 653.832031 62.371094 653.832031 64.148438 654.105469 65.925781 C 654.105469 66.0625 654.105469 66.199219 654.242188 66.335938 C 654.515625 66.609375 654.925781 67.019531 655.472656 67.703125 C 655.882812 68.253906 656.15625 68.664062 656.15625 69.484375 C 656.292969 70.167969 656.292969 70.851562 656.292969 71.535156 C 656.292969 71.671875 656.429688 71.945312 656.566406 71.945312 C 657.386719 72.21875 658.207031 72.628906 658.753906 73.039062 C 659.710938 73.859375 661.078125 74.953125 662.859375 76.320312 C 663.269531 76.59375 663.679688 76.59375 663.40625 77.28125 C 663.40625 77.28125 663.269531 77.28125 663.269531 77.28125 C 663.269531 77.417969 663.40625 77.417969 663.40625 77.417969 C 663.40625 77.417969 663.542969 77.417969 663.542969 77.417969 L 664.226562 76.867188 C 666.140625 75.910156 667.234375 75.5 667.507812 75.363281 C 668.464844 74.953125 669.148438 75.226562 669.96875 75.773438 C 670.515625 76.183594 670.652344 76.457031 670.652344 77.003906 C 670.652344 77.28125 670.925781 77.417969 671.335938 77.417969 C 671.886719 77.417969 672.570312 77.691406 673.117188 77.964844 C 673.253906 78.101562 673.390625 78.238281 673.390625 78.375 C 673.390625 79.195312 673.253906 79.742188 672.84375 80.152344 C 672.84375 80.152344 672.707031 80.289062 672.84375 80.289062 C 673.117188 81.246094 672.707031 82.203125 671.886719 82.613281 C 671.886719 82.75 671.886719 82.75 671.886719 82.886719 C 671.75 83.570312 671.472656 84.117188 670.925781 84.527344 C 670.789062 84.527344 670.789062 84.664062 670.789062 84.800781 C 670.515625 85.757812 670.242188 86.03125 669.421875 86.167969 C 669.285156 86.167969 669.148438 86.167969 669.148438 86.308594 C 668.738281 86.71875 668.601562 87.128906 667.917969 87.128906 C 667.78125 87.128906 667.78125 87.128906 667.644531 87.128906 C 666.960938 86.855469 665.867188 86.445312 664.363281 85.894531 C 663.679688 85.621094 662.859375 84.664062 662.308594 84.253906 C 661.488281 83.707031 660.53125 83.296875 659.574219 83.023438 C 659.4375 83.023438 659.4375 83.023438 659.300781 83.023438 C 656.839844 85.210938 654.105469 86.992188 650.957031 87.675781 C 650.820312 87.675781 650.546875 87.675781 650.410156 87.539062 C 647.128906 83.296875 643.707031 78.785156 641.382812 73.996094 C 640.5625 72.21875 640.152344 70.441406 639.878906 68.527344 C 639.878906 67.703125 639.878906 66.609375 640.152344 65.242188 C 640.5625 62.507812 640.835938 61.140625 640.835938 60.867188 C 641.65625 57.308594 642.75 53.890625 644.253906 50.609375 C 644.941406 48.964844 645.625 47.324219 646.308594 45.410156 C 646.308594 45.273438 646.445312 45 646.71875 44.863281 L 647.8125 44.179688 C 648.085938 44.042969 648.222656 43.769531 648.222656 43.496094 C 648.359375 42.675781 648.769531 41.992188 649.042969 41.308594 C 649.589844 40.347656 650.136719 39.390625 650.683594 38.296875 C 650.820312 38.023438 651.367188 37.476562 651.640625 37.203125 C 652.324219 36.519531 653.007812 35.835938 653.832031 34.878906 C 654.378906 34.195312 655.0625 33.648438 655.746094 33.375 C 655.882812 33.238281 655.882812 33.238281 655.882812 33.101562 L 656.976562 31.730469 C 656.976562 31.730469 656.976562 31.730469 656.976562 31.59375 C 656.703125 30.773438 656.429688 29.816406 656.019531 28.722656 C 655.882812 28.3125 656.019531 27.902344 656.566406 27.628906 C 657.933594 26.945312 659.4375 26.398438 661.078125 26.125 C 661.078125 26.125 661.214844 25.988281 661.214844 25.988281 C 661.078125 24.484375 661.078125 23.390625 660.804688 22.703125 C 660.667969 22.292969 660.257812 21.746094 659.710938 20.789062 C 658.617188 19.285156 657.933594 16.824219 658.480469 15.046875 C 658.890625 13.265625 659.300781 11.625 660.667969 10.667969 C 660.804688 10.53125 660.941406 10.394531 661.078125 10.394531 C 661.488281 9.4375 661.898438 8.890625 662.859375 8.480469 C 663.953125 7.933594 665.183594 7.660156 666.550781 7.796875 C 666.550781 7.796875 666.550781 7.796875 666.6875 7.796875 L 666.960938 7.933594 C 667.097656 8.070312 667.234375 8.070312 667.371094 8.070312 C 668.601562 8.070312 669.421875 8.070312 669.832031 8.070312 C 672.707031 8.34375 675.304688 9.300781 677.492188 11.078125 C 678.996094 12.308594 679.679688 14.363281 677.902344 15.59375 C 677.902344 15.730469 677.902344 15.730469 677.902344 15.730469 C 677.765625 15.730469 677.765625 15.59375 677.765625 15.59375 L 677.628906 15.183594 C 677.628906 15.183594 677.628906 15.183594 677.628906 15.046875 C 677.492188 15.046875 677.355469 15.046875 677.355469 15.183594 C 677.355469 16.140625 677.492188 16.960938 677.765625 17.78125 C 677.765625 17.78125 677.765625 17.917969 677.765625 17.917969 C 677.765625 18.054688 677.765625 18.191406 677.765625 18.191406 C 677.492188 18.738281 676.945312 19.285156 677.492188 20.105469 C 677.765625 20.515625 678.3125 21.335938 678.996094 22.566406 C 679.542969 23.390625 678.722656 23.9375 678.039062 24.074219 C 677.765625 24.074219 677.628906 24.210938 677.628906 24.484375 C 677.628906 24.484375 677.628906 24.621094 677.628906 24.621094 C 677.902344 25.03125 678.175781 25.578125 677.628906 25.851562 C 677.492188 25.988281 677.355469 26.125 677.355469 26.125 C 677.21875 26.125 677.21875 26.261719 677.21875 26.261719 C 677.21875 26.261719 677.21875 26.261719 677.21875 26.398438 C 677.21875 26.671875 677.21875 27.082031 677.082031 27.355469 C 677.082031 27.492188 677.082031 27.628906 677.082031 27.628906 C 677.355469 28.3125 677.355469 28.859375 676.945312 29.40625 C 676.945312 29.542969 677.082031 29.542969 677.082031 29.542969 C 678.722656 29.679688 680.363281 30.089844 681.734375 31.046875 C 681.871094 31.183594 682.554688 31.320312 683.648438 31.59375 C 683.785156 31.730469 683.921875 31.730469 684.058594 31.730469 C 684.46875 32.007812 685.152344 32.417969 686.109375 33.101562 C 686.65625 33.511719 687.476562 33.375 688.023438 33.511719 C 688.980469 33.785156 689.527344 34.46875 689.941406 35.425781 C 690.351562 36.246094 690.625 36.929688 691.71875 37.066406 C 692.265625 37.066406 693.085938 37.066406 694.042969 37.066406 C 694.179688 37.066406 694.453125 37.066406 694.589844 37.066406 C 695 37.339844 695.410156 37.75 696.09375 37.476562 C 698.144531 36.929688 700.199219 35.972656 702.25 34.878906 C 702.25 34.878906 702.386719 34.742188 702.523438 34.878906 C 702.523438 34.878906 702.660156 34.878906 702.660156 35.015625 C 702.796875 35.015625 702.933594 35.015625 702.933594 35.015625 L 704.164062 33.785156 C 704.300781 33.785156 704.300781 33.785156 704.300781 33.785156 L 704.710938 30.773438 C 704.710938 30.636719 704.847656 30.5 704.847656 30.5 C 705.121094 30.089844 705.53125 29.953125 705.941406 29.679688 C 706.351562 29.542969 706.625 29.542969 706.898438 29.816406 C 706.898438 29.816406 706.898438 29.953125 707.035156 29.953125 C 707.035156 29.953125 707.171875 29.816406 707.171875 29.816406 C 707.308594 29.132812 707.71875 28.722656 708.269531 28.585938 C 708.679688 28.3125 709.363281 28.039062 710.320312 27.628906 C 711.550781 26.945312 711.550781 28.175781 712.097656 28.859375 C 712.097656 28.859375 712.234375 28.996094 712.234375 28.996094 C 712.917969 29.40625 713.191406 29.816406 713.191406 30.5 C 713.191406 30.636719 713.191406 30.773438 713.328125 30.773438 C 713.875 31.320312 714.148438 32.144531 714.011719 32.964844 C 714.011719 32.964844 714.011719 33.101562 714.011719 33.238281 C 714.558594 33.921875 714.421875 34.605469 713.738281 35.152344 C 713.601562 35.289062 713.601562 35.289062 713.464844 35.425781 C 713.464844 35.835938 713.328125 36.109375 713.191406 36.109375 C 711.960938 36.929688 711.003906 37.476562 710.320312 37.75 C 710.183594 37.75 709.636719 37.886719 708.816406 38.023438 C 708.679688 38.023438 708.40625 38.023438 708.269531 38.160156 C 707.171875 38.707031 706.214844 39.390625 705.121094 40.210938 C 705.121094 40.210938 705.121094 40.347656 705.121094 40.484375 C 705.53125 41.855469 705.667969 43.222656 705.53125 44.589844 C 705.53125 44.726562 705.53125 44.726562 705.53125 44.726562 C 706.351562 44.316406 707.308594 43.90625 708.40625 43.632812 C 708.679688 43.632812 709.089844 43.222656 709.636719 42.675781 C 710.457031 42.128906 711.140625 41.71875 711.960938 41.582031 C 712.097656 41.582031 712.234375 41.445312 712.371094 41.445312 C 712.78125 41.171875 714.421875 40.210938 717.707031 38.296875 C 718.390625 37.886719 719.074219 37.613281 719.757812 37.339844 C 720.03125 37.339844 720.167969 37.066406 720.304688 36.929688 L 723.175781 33.648438 C 723.175781 33.648438 723.175781 33.511719 723.175781 33.511719 C 722.355469 32.691406 721.535156 32.007812 720.851562 31.320312 C 717.84375 28.996094 714.832031 26.671875 711.550781 24.484375 C 709.226562 22.980469 707.308594 21.882812 704.574219 20.515625 C 704.300781 20.378906 704.164062 20.242188 704.164062 19.96875 C 704.164062 19.832031 704.164062 19.421875 704.300781 19.011719 C 704.4375 17.507812 704.847656 16.003906 705.394531 14.5 C 705.53125 14.363281 705.394531 14.363281 705.394531 14.226562 C 704.164062 13.539062 702.796875 12.855469 701.429688 12.308594 C 700.0625 11.625 698.691406 11.488281 697.324219 11.351562 C 697.050781 11.214844 696.777344 11.214844 696.503906 11.078125 C 695.957031 10.667969 695.410156 10.394531 694.726562 10.257812 C 692.539062 9.574219 691.171875 9.164062 690.898438 9.164062 C 690.214844 8.890625 689.117188 8.890625 687.75 8.890625 C 687.75 8.890625 687.613281 8.890625 687.476562 8.890625 C 685.972656 9.847656 685.015625 9.847656 685.015625 7.796875 C 685.015625 7.660156 685.015625 7.523438 685.015625 7.523438 L 685.699219 6.292969 C 685.835938 6.15625 685.835938 6.15625 685.835938 6.15625 L 686.246094 6.019531 C 686.246094 6.019531 686.382812 6.019531 686.382812 6.019531 C 686.382812 5.882812 686.246094 5.882812 686.246094 5.882812 C 685.972656 5.882812 685.699219 5.746094 685.425781 5.609375 C 685.425781 5.609375 685.289062 5.472656 685.289062 5.472656 C 685.015625 4.925781 685.015625 4.511719 685.425781 4.101562 C 685.425781 3.964844 685.425781 3.964844 685.425781 3.828125 C 685.289062 3.417969 685.425781 3.007812 685.835938 2.734375 C 686.382812 2.324219 685.972656 2.050781 686.109375 1.640625 C 686.382812 1.230469 686.792969 0.957031 687.339844 0.957031 C 687.339844 0.957031 687.476562 0.820312 687.476562 0.820312 C 687.75 0.273438 688.160156 0.136719 688.84375 0.273438 C 688.980469 0.273438 689.117188 0.273438 689.117188 0.273438 C 689.664062 0 689.941406 0 690.351562 0.136719 C 690.351562 0.136719 690.488281 0.273438 690.625 0.136719 C 691.171875 0 691.992188 0.136719 692.949219 0.273438 C 693.359375 0.410156 694.042969 0.820312 694.863281 1.503906 C 696.640625 2.871094 698.28125 3.691406 700.746094 4.789062 C 701.703125 5.0625 702.523438 5.882812 703.207031 6.976562 C 703.34375 7.113281 703.753906 7.386719 704.4375 7.660156 C 705.394531 8.070312 706.761719 8.617188 708.40625 9.300781 C 708.40625 9.300781 708.542969 9.300781 708.542969 9.300781 L 710.320312 7.660156 C 710.457031 7.660156 710.59375 7.523438 710.59375 7.523438 C 710.867188 7.523438 711.140625 7.660156 711.414062 7.796875 C 715.105469 9.4375 718.664062 11.761719 722.082031 14.089844 C 723.585938 15.046875 724.679688 15.867188 725.226562 16.414062 C 725.910156 17.097656 726.734375 17.917969 727.554688 18.875 C 727.691406 19.011719 727.828125 19.011719 727.964844 19.011719 C 728.375 18.875 728.785156 18.875 728.785156 19.148438 C 729.332031 20.105469 729.878906 20.925781 730.5625 21.609375 L 733.707031 23.9375 L 737.8125 26.125 C 737.8125 26.125 737.8125 26.125 737.949219 26.125 L 739.316406 25.714844 C 738.496094 25.167969 738.085938 24.621094 738.222656 23.9375 C 738.222656 22.15625 738.496094 20.378906 739.042969 18.328125 C 739.042969 18.191406 739.042969 18.191406 738.90625 18.191406 C 737.539062 17.371094 736.308594 16.6875 735.074219 16.140625 C 734.253906 15.730469 733.296875 15.59375 732.339844 15.867188 C 731.382812 16.140625 730.972656 16.277344 730.835938 16.414062 C 730.699219 16.414062 730.5625 16.414062 730.425781 16.414062 L 729.195312 16.414062 C 729.058594 16.414062 728.921875 16.277344 728.785156 16.140625 C 728.101562 15.457031 727.417969 14.773438 727.007812 13.539062 C 727.007812 13.402344 727.007812 13.265625 727.007812 13.128906 C 727.007812 12.855469 727.144531 12.445312 727.28125 11.898438 C 727.28125 11.488281 727.554688 11.078125 727.691406 10.804688 C 727.691406 10.394531 728.238281 9.984375 728.375 9.4375 C 728.511719 9.4375 728.511719 9.300781 728.648438 9.164062 L 729.332031 8.34375 C 729.332031 8.207031 729.46875 8.207031 729.46875 8.207031 C 729.742188 8.070312 730.015625 7.933594 730.289062 7.933594 C 730.425781 7.933594 730.425781 7.933594 730.425781 7.933594 L 730.972656 7.523438 C 731.246094 7.386719 731.519531 7.25 731.792969 7.386719 L 733.296875 8.070312 C 733.433594 8.207031 733.707031 8.34375 733.84375 8.617188 C 733.980469 8.617188 734.800781 9.574219 736.71875 11.488281 C 736.855469 11.761719 737.265625 11.898438 737.949219 12.171875 C 739.589844 12.71875 740.546875 13.128906 741.09375 13.265625 C 741.230469 13.402344 741.367188 13.402344 741.503906 13.265625 C 741.914062 12.992188 742.1875 13.265625 742.597656 13.265625 C 743.417969 13.539062 744.378906 13.816406 745.199219 14.363281 C 745.335938 14.363281 745.472656 14.5 745.746094 14.5 C 747.113281 14.773438 747.523438 14.910156 748.480469 15.730469 C 748.890625 16.003906 749.300781 16.277344 749.984375 16.414062 C 752.171875 16.824219 753.816406 16.960938 755.183594 18.054688 C 755.320312 18.191406 755.457031 18.191406 755.59375 18.054688 C 757.234375 17.234375 758.601562 16.003906 759.96875 14.773438 C 760.789062 14.226562 761.746094 13.679688 762.570312 13.128906 C 762.707031 13.128906 762.707031 12.992188 762.84375 12.855469 C 763.800781 12.035156 764.757812 11.214844 765.851562 10.804688 C 766.808594 10.53125 767.492188 9.4375 768.449219 10.121094 C 768.585938 10.121094 768.585938 10.121094 768.722656 10.121094 C 768.996094 10.121094 769.953125 9.984375 770.5 10.257812 C 770.910156 10.53125 770.363281 11.078125 770.089844 11.214844 Z M 766.125 40.757812 C 765.851562 40.210938 766.125 39.664062 766.671875 39.253906 C 767.628906 38.707031 768.175781 38.296875 768.449219 38.160156 C 768.585938 38.160156 768.722656 38.160156 768.859375 38.160156 L 769.816406 38.160156 C 769.953125 38.160156 770.089844 38.023438 770.089844 37.886719 C 770.636719 36.65625 769.679688 36.109375 768.585938 35.835938 C 768.3125 35.835938 767.355469 35.5625 765.851562 35.015625 C 763.527344 34.46875 760.925781 32.828125 758.738281 32.28125 C 758.054688 32.144531 756.414062 31.730469 753.542969 31.046875 C 752.992188 30.910156 752.308594 30.910156 751.898438 31.320312 C 751.898438 31.457031 751.898438 31.871094 751.761719 32.691406 C 751.625 33.238281 751.488281 33.921875 751.351562 34.605469 C 751.351562 34.605469 751.351562 34.742188 751.214844 34.878906 C 751.214844 34.878906 751.214844 35.015625 751.214844 35.015625 C 751.214844 35.152344 751.214844 35.152344 751.214844 35.152344 L 755.867188 38.433594 C 756.003906 38.433594 756.003906 38.570312 756.140625 38.570312 C 756.550781 38.707031 756.824219 38.707031 756.960938 38.707031 C 759.011719 38.84375 760.652344 38.980469 761.882812 39.117188 C 763.253906 39.253906 763.527344 39.9375 764.347656 40.621094 C 764.484375 40.757812 764.757812 40.898438 764.894531 40.898438 L 765.988281 40.898438 C 766.125 40.898438 766.125 40.757812 766.125 40.757812 Z M 795.394531 58.265625 L 793.480469 59.089844 C 793.34375 59.089844 793.34375 59.226562 793.480469 59.363281 C 794.164062 59.5 794.710938 59.363281 795.394531 59.089844 C 795.394531 59.089844 795.394531 58.949219 795.394531 58.949219 Z M 795.394531 58.265625 " fill-opacity="1" fill-rule="evenodd"/></g><g clip-path="url(#20e3f5f095)"><g transform="matrix(1, 0, 0, 1, 440, 0)"><g clip-path="url(#5b95bfb983)"><g clip-path="url(#b7f9dc199f)"><path fill="#ee202d" d="M 2.746094 147.242188 C 7.347656 146.085938 11.261719 143.511719 15.046875 140.847656 C 17.320312 139.246094 18.753906 136.820312 19.574219 134.082031 C 19.929688 132.890625 19.78125 132.238281 18.496094 131.714844 C 12.585938 129.367188 12.679688 129.367188 15.25 123.625 C 18.195312 117.046875 21.027344 110.410156 23.824219 103.757812 C 25.035156 100.886719 26.882812 98.761719 29.453125 96.9375 C 35.0625 92.964844 40.953125 89.460938 47.066406 86.351562 C 47.4375 86.164062 47.792969 85.921875 48.183594 85.679688 C 47.589844 85.269531 46.84375 85.195312 46.375 84.355469 C 49.136719 82.921875 51.78125 81.207031 54.671875 80.125 C 57.839844 78.949219 59.5 76.082031 62.164062 74.402344 C 63.078125 73.824219 62.535156 72.183594 62.089844 71.550781 C 60.671875 69.558594 60.46875 67.5625 60.617188 65.175781 C 60.746094 63.109375 59.945312 60.984375 59.5 58.894531 C 59.253906 57.816406 59.367188 56.679688 58.734375 55.558594 C 54.78125 58.207031 50.457031 60.164062 46.058594 62.027344 C 43.917969 62.941406 41.773438 63.292969 39.425781 63.035156 C 36.238281 62.679688 33.050781 62.753906 29.882812 63.445312 C 27.71875 63.929688 26.789062 63.332031 26.082031 61.300781 C 25.835938 60.609375 25.503906 59.921875 25.445312 59.214844 C 25.203125 56.25 23.339844 54.757812 20.769531 53.808594 C 19.164062 53.210938 17.617188 52.449219 15.921875 52.1875 C 12.867188 51.738281 10.816406 49.855469 8.800781 47.675781 C 6.621094 45.308594 5.484375 42.382812 3.714844 39.8125 C 3.117188 38.933594 3.210938 37.945312 2.875 37.035156 C 2.726562 36.660156 4.554688 35.578125 5.019531 35.804688 C 10.144531 38.265625 15.566406 40.257812 18.34375 45.886719 C 19.371094 47.972656 21.773438 47.863281 23.714844 48.085938 C 28.035156 48.609375 32.378906 48.851562 36.722656 49.222656 C 37.320312 49.277344 37.691406 49.222656 37.933594 48.496094 C 38.398438 47.097656 39.519531 46.632812 40.972656 46.632812 C 42.910156 46.632812 44.457031 45.941406 45.539062 44.117188 C 46.972656 41.691406 48.445312 39.234375 51.296875 38.132812 C 51.503906 38.058594 51.6875 37.835938 51.835938 37.628906 C 55.378906 33.230469 60.242188 31.480469 65.628906 30.828125 C 66.523438 30.714844 67.234375 30.324219 68.015625 30.007812 C 69.023438 29.578125 69.5625 28.832031 69.191406 27.84375 C 68.816406 26.820312 68.054688 27.714844 67.492188 27.789062 C 65.964844 27.957031 64.976562 27.753906 64.699219 25.851562 C 64.398438 23.839844 64.214844 21.714844 62.386719 20.148438 C 61.699219 19.550781 62.515625 18.285156 62.835938 17.390625 C 63.523438 15.488281 62.125 13.71875 62.554688 11.855469 C 61.734375 11.761719 61.363281 11.257812 61.136719 10.511719 C 60.671875 8.945312 61.082031 7.660156 62.183594 6.46875 C 66.132812 2.160156 70.980469 0 76.8125 0.875 C 80.242188 1.398438 82.570312 3.707031 84.007812 6.839844 C 84.378906 7.640625 84.769531 8.199219 85.851562 8.273438 C 87.136719 8.351562 88.164062 9.039062 88.945312 10.269531 C 90.625 12.878906 91.703125 15.5625 91.425781 18.730469 C 91.21875 21.191406 89.246094 23.597656 87.046875 23.875 C 85.199219 24.097656 84.585938 23.429688 84.9375 21.601562 C 85.011719 21.171875 85.125 20.761719 85.125 20.335938 C 85.144531 18.636719 85.125 16.941406 84.996094 15.207031 C 83.988281 17.632812 83.671875 20.242188 82.589844 22.609375 C 82.496094 22.832031 82.609375 23.277344 82.777344 23.464844 C 84.4375 25.179688 85.199219 27.789062 87.847656 28.535156 C 90.195312 29.1875 92.507812 29.988281 94.816406 30.714844 C 97.296875 31.5 99.328125 32.894531 100.726562 35.132812 C 105.050781 41.992188 108.796875 49.128906 111.628906 56.734375 C 112.394531 58.785156 112.152344 60.722656 110.996094 62.511719 C 109.300781 65.140625 107.585938 67.75 105.832031 70.320312 C 105.144531 71.328125 104.210938 71.683594 102.960938 71.085938 C 101.191406 70.226562 99.515625 69.183594 97.984375 67.992188 C 96.960938 67.191406 95.992188 66.964844 94.796875 67.359375 C 94.277344 67.527344 93.699219 67.542969 93.214844 67.75 C 92.507812 68.066406 91.125 67.824219 91.164062 68.476562 C 91.238281 69.613281 90.996094 71.046875 92.019531 71.941406 C 93.941406 73.601562 95.023438 75.800781 96.160156 77.964844 C 98.132812 81.691406 100.054688 85.457031 101.992188 89.203125 C 102.347656 89.871094 103 90.542969 102.105469 91.328125 C 101.5625 91.792969 102.214844 92.070312 102.382812 92.371094 C 105.21875 97.382812 107.9375 102.453125 111.011719 107.316406 C 112.429688 109.574219 114.460938 111.625 116.53125 113.152344 C 121.039062 116.46875 123.984375 120.886719 126.726562 125.546875 C 127.84375 127.445312 128.792969 129.441406 129.800781 131.417969 C 130.492188 132.777344 131.105469 134.15625 130.992188 135.777344 C 130.917969 136.878906 131.476562 137.921875 132.074219 138.851562 C 133.753906 141.460938 135.503906 144.035156 137.199219 146.644531 C 137.890625 147.726562 138.636719 148.789062 139.15625 149.960938 C 140.144531 152.179688 139.417969 153.523438 137.144531 154.285156 C 135.242188 154.9375 133.304688 155.105469 131.347656 154.957031 C 128.886719 154.769531 127.9375 153.167969 128.960938 150.949219 C 129.335938 150.148438 129.296875 149.328125 129.074219 148.601562 C 128.160156 145.675781 126.929688 142.898438 125.046875 140.4375 C 124.542969 139.765625 124.117188 139.710938 123.332031 140.046875 C 121.433594 140.847656 119.476562 141.59375 117.5 142.207031 C 113.828125 143.363281 112.335938 142.933594 110.25 139.859375 C 103.707031 130.207031 95.84375 121.652344 88.109375 112.984375 C 85.683594 110.28125 83.390625 107.46875 81.082031 104.671875 C 80.558594 104.039062 80.113281 103.554688 79.125 103.628906 C 75.003906 103.925781 70.921875 103.460938 66.859375 102.789062 C 64.734375 102.433594 62.851562 103.796875 62.574219 105.976562 C 62.515625 106.40625 62.441406 106.816406 62.386719 107.242188 C 62.21875 108.378906 61.605469 108.679688 60.578125 108.195312 C 60.523438 108.175781 60.46875 108.136719 60.410156 108.121094 C 57.503906 106.125 55.007812 107.074219 52.359375 108.902344 C 49.339844 110.972656 46.191406 112.910156 42.742188 114.25 C 42.109375 114.492188 41.902344 114.808594 41.867188 115.445312 C 41.8125 116.75 41.53125 118.054688 40.785156 119.097656 C 37.765625 123.253906 36.257812 128.15625 34.074219 132.722656 C 32.453125 136.09375 32.472656 136.207031 28.839844 135.257812 C 27.683594 134.957031 27.402344 135.273438 26.976562 136.226562 C 25.519531 139.355469 24.851562 142.523438 25.652344 146.011719 C 26.15625 148.226562 25.09375 149.402344 22.820312 149.441406 C 21.476562 149.457031 20.132812 149.457031 18.773438 149.199219 C 17.152344 148.898438 15.511719 149.03125 13.890625 149.609375 C 10.292969 150.875 6.640625 151.898438 2.765625 150.96875 C 1.71875 150.726562 0.566406 150.445312 0.546875 149.179688 C 0.566406 147.875 1.71875 147.484375 2.746094 147.242188 Z M 97.726562 57.589844 C 98.042969 57.257812 97.984375 56.996094 97.742188 56.640625 C 96.8125 55.316406 95.917969 53.957031 94.949219 52.539062 C 93.53125 55.222656 93.160156 58.039062 92.65625 60.871094 C 95.46875 61.246094 96.34375 59.0625 97.726562 57.589844 Z M 97.726562 57.589844 " fill-opacity="1" fill-rule="nonzero"/></g></g></g></g><g clip-path="url(#1d932d4cbf)"><path fill="#ee202d" d="M 415.546875 15.851562 C 415.179688 13.902344 413.378906 12.734375 411.667969 12.0625 C 409.539062 11.226562 407.316406 10.59375 405.144531 9.875 C 403.125 9.203125 400.9375 8.488281 398.847656 9.3125 C 397.816406 9.722656 396.9375 10.402344 396 10.980469 C 394.972656 11.617188 393.863281 11.972656 392.71875 12.335938 C 391.503906 12.722656 390.1875 13.175781 389.199219 13.980469 C 389.148438 13.996094 389.097656 14.015625 389.046875 14.035156 C 388.707031 14.191406 388.378906 14.390625 388.042969 14.558594 C 387.371094 14.90625 386.695312 15.238281 386.015625 15.5625 C 384.636719 16.214844 383.242188 16.847656 381.8125 17.371094 C 380.378906 17.894531 378.914062 18.257812 377.40625 18.476562 C 375.914062 18.6875 374.410156 18.800781 372.921875 19.023438 C 367.367188 19.859375 362.171875 22.09375 357.089844 24.386719 C 355.636719 25.042969 354.1875 25.710938 352.734375 26.363281 C 351.8125 26.78125 350.878906 27.175781 349.953125 27.585938 C 349.4375 27.660156 348.921875 27.746094 348.40625 27.835938 C 347.222656 28.046875 346.050781 28.289062 344.882812 28.570312 C 342.570312 29.128906 340.285156 29.8125 338.066406 30.667969 C 337.152344 31.023438 336.242188 31.394531 335.367188 31.839844 C 335.335938 31.789062 335.300781 31.734375 335.261719 31.683594 C 335.261719 31.667969 335.25 31.65625 335.238281 31.648438 C 335.066406 31.410156 334.867188 31.191406 334.660156 30.972656 C 334.171875 30.464844 333.617188 30.023438 333.027344 29.636719 C 331.65625 28.742188 330.097656 28.179688 328.5625 27.636719 C 325.378906 26.511719 322.316406 25.15625 319.421875 23.414062 C 317.984375 22.546875 316.609375 21.589844 315.261719 20.59375 C 313.980469 19.648438 312.691406 18.855469 311.199219 18.304688 C 309.84375 17.804688 308.386719 17.375 307.359375 16.300781 C 306.855469 15.773438 306.441406 15.488281 305.683594 15.585938 C 304.757812 15.703125 303.832031 15.847656 302.90625 15.980469 C 300.839844 16.277344 298.773438 16.578125 296.710938 16.890625 C 296.019531 16.996094 295.328125 17.097656 294.636719 17.207031 C 294.914062 16.933594 295.160156 16.625 295.132812 16.21875 C 295.089844 15.65625 294.609375 15.300781 294.167969 15.039062 C 293.921875 14.890625 293.6875 14.757812 293.542969 14.5 C 293.402344 14.242188 293.363281 13.929688 293.339844 13.640625 C 293.179688 11.59375 292.773438 9.53125 291.792969 7.722656 C 292.5625 7.21875 293.171875 6.46875 293.316406 5.542969 C 293.328125 5.472656 293.296875 5.40625 293.246094 5.363281 C 293.28125 5.304688 293.269531 5.21875 293.179688 5.191406 C 292.050781 4.84375 291.320312 3.800781 290.644531 2.902344 C 289.976562 2.007812 289.257812 1.046875 288.210938 0.570312 C 287.511719 0.253906 286.75 0.164062 285.992188 0.121094 C 285.175781 0.078125 284.355469 0.046875 283.539062 0.0351562 C 281.972656 0.0078125 280.390625 0.0664062 278.851562 0.386719 C 277.359375 0.699219 275.9375 1.289062 274.714844 2.203125 C 273.546875 3.078125 272.582031 4.175781 271.738281 5.359375 C 271.304688 5.96875 270.902344 6.601562 270.523438 7.25 C 270.136719 7.90625 269.738281 8.578125 269.484375 9.300781 C 268.964844 10.789062 269.570312 12.257812 270.285156 13.570312 C 271.070312 15.011719 272.140625 16.285156 273.433594 17.292969 C 274.269531 17.949219 275.3125 18.417969 276.183594 19.0625 C 276.320312 19.289062 276.460938 19.507812 276.582031 19.71875 C 276.894531 20.257812 277.195312 21.132812 277.921875 21.1875 C 278.007812 21.195312 278.09375 21.1875 278.179688 21.175781 C 278.226562 21.457031 278.410156 21.679688 278.527344 21.9375 C 278.660156 22.238281 278.753906 22.554688 278.8125 22.878906 C 278.824219 22.953125 278.835938 23.027344 278.847656 23.101562 C 278.097656 23.554688 277.34375 23.996094 276.605469 24.46875 C 275.976562 24.875 275.347656 25.359375 275.035156 26.0625 C 274.691406 26.828125 274.734375 27.675781 274.640625 28.488281 C 274.457031 30.078125 273.839844 31.613281 272.90625 32.914062 C 272.429688 33.578125 271.855469 34.167969 271.226562 34.691406 C 270.640625 35.171875 269.988281 35.648438 269.65625 36.351562 C 269.285156 37.128906 269.421875 37.96875 269.585938 38.777344 C 269.769531 39.695312 269.855469 40.601562 269.785156 41.539062 C 269.644531 43.4375 268.984375 45.273438 268.238281 47.011719 C 267.578125 48.554688 266.414062 50.289062 267.148438 52 C 267.496094 52.800781 268.054688 53.523438 268.519531 54.261719 C 269.023438 55.058594 269.515625 55.859375 270.003906 56.667969 C 271.09375 58.484375 272.144531 60.328125 273.144531 62.195312 C 273.804688 63.421875 274.4375 64.664062 275.089844 65.894531 C 275.089844 65.898438 275.089844 65.898438 275.089844 65.902344 C 275.027344 66.648438 274.839844 67.402344 274.925781 68.152344 C 275.011719 68.90625 275.433594 69.441406 275.941406 69.972656 C 276.519531 70.570312 277.097656 71.164062 277.675781 71.753906 C 278.257812 72.347656 278.835938 72.941406 279.417969 73.53125 C 279.941406 74.066406 280.460938 74.722656 281.144531 75.058594 C 282.484375 75.714844 283.972656 74.96875 285.203125 74.398438 C 286.464844 73.816406 287.691406 73.164062 288.878906 72.441406 C 291.207031 71.027344 293.40625 69.351562 295.359375 67.449219 C 296.472656 66.367188 297.507812 65.214844 298.457031 63.988281 C 298.492188 63.9375 298.53125 63.890625 298.566406 63.84375 C 299.117188 63.949219 299.671875 64.050781 300.226562 64.140625 C 301.003906 64.265625 301.785156 64.367188 302.574219 64.421875 C 302.472656 64.90625 302.457031 65.429688 302.445312 65.90625 C 302.425781 66.539062 302.46875 67.171875 302.546875 67.800781 C 302.703125 69.039062 303.019531 70.246094 303.449219 71.417969 C 303.808594 72.40625 304.246094 73.367188 304.6875 74.324219 C 303.898438 78.191406 304.414062 82.140625 304.921875 86.015625 C 305.191406 88.054688 305.457031 90.097656 305.53125 92.15625 C 305.609375 94.300781 305.414062 96.421875 305.140625 98.546875 C 304.984375 99.765625 304.816406 100.984375 304.652344 102.203125 C 304.628906 102.394531 304.601562 102.585938 304.574219 102.777344 C 303.515625 103.671875 302.71875 104.714844 302.503906 106.175781 C 302.226562 108.097656 302.75 110.023438 302.882812 111.9375 C 303.027344 114.03125 302.886719 116.144531 302.457031 118.199219 C 302.246094 119.21875 301.964844 120.222656 301.621094 121.207031 C 301.277344 122.179688 300.800781 123.109375 300.527344 124.105469 C 300.277344 125.007812 300.273438 125.929688 300.628906 126.804688 C 300.953125 127.605469 301.503906 128.289062 302.058594 128.945312 C 302.664062 129.664062 303.257812 130.375 303.722656 131.199219 C 304.207031 132.0625 304.542969 132.976562 304.78125 133.933594 C 304.816406 134.082031 304.859375 134.226562 304.914062 134.359375 C 304.40625 135.929688 303.855469 137.484375 303.238281 139.011719 C 302.761719 140.191406 302.234375 141.34375 301.671875 142.484375 C 301.128906 143.582031 300.496094 144.589844 299.59375 145.425781 C 298.738281 146.214844 297.769531 146.90625 296.816406 147.566406 C 295.875 148.21875 294.875 148.792969 293.75 149.035156 C 292.761719 149.246094 291.574219 149.011719 290.832031 149.859375 C 290.234375 150.542969 290.085938 151.527344 290.285156 152.390625 C 290.484375 153.234375 291.007812 153.996094 291.722656 154.484375 C 292.550781 155.050781 293.605469 155.097656 294.542969 154.808594 C 295.628906 154.480469 296.550781 153.796875 297.476562 153.164062 C 298.484375 152.476562 299.527344 151.832031 300.601562 151.246094 C 301.671875 150.65625 302.78125 150.132812 303.90625 149.660156 C 305.117188 149.152344 306.308594 148.792969 307.609375 149.152344 C 308.167969 149.308594 308.714844 149.5 309.296875 149.535156 C 309.847656 149.5625 310.394531 149.4375 310.902344 149.230469 C 311.828125 148.851562 312.777344 148.175781 313.191406 147.234375 C 313.648438 146.203125 313.410156 144.957031 313.136719 143.90625 C 312.84375 142.765625 312.390625 141.675781 312.054688 140.542969 C 311.378906 138.261719 311.703125 135.914062 312.03125 133.597656 C 312.289062 133.503906 312.550781 133.410156 312.808594 133.316406 L 314.628906 132.660156 C 315.089844 132.496094 315.679688 132.367188 316.054688 132.035156 C 316.433594 131.699219 316.476562 131.226562 316.460938 130.75 C 316.445312 130.382812 316.429688 130.015625 316.414062 129.648438 C 317.242188 129.214844 318.355469 129.285156 319.269531 129.226562 C 320.003906 129.179688 320.753906 129.046875 321.363281 128.613281 C 321.878906 128.25 322.246094 127.75 322.484375 127.171875 C 323.027344 125.851562 322.925781 124.371094 322.863281 122.976562 C 322.785156 121.101562 322.703125 119.226562 322.625 117.347656 C 322.460938 113.554688 322.242188 109.753906 322.148438 105.957031 C 322.101562 104.027344 322.175781 102.117188 322.496094 100.210938 C 322.804688 98.398438 323.242188 96.613281 323.554688 94.800781 C 323.75 93.679688 323.90625 92.546875 324.023438 91.414062 C 326.335938 93.671875 328.722656 95.832031 331.292969 97.792969 C 332.78125 98.929688 334.308594 100.003906 335.878906 101.019531 C 336.109375 101.167969 336.324219 100.917969 336.296875 100.699219 C 335.347656 93.433594 335.539062 86.027344 336.476562 78.773438 C 337.421875 71.492188 339.105469 64.324219 341.171875 57.28125 C 341.621094 55.761719 342.085938 54.25 342.550781 52.734375 C 344.707031 51.140625 346.832031 49.5 348.964844 47.871094 C 350.621094 46.601562 352.269531 45.324219 353.84375 43.957031 C 355.390625 42.613281 356.808594 41.144531 358.25 39.691406 C 359.640625 38.289062 361.09375 36.972656 362.773438 35.925781 C 363.71875 35.34375 364.699219 34.832031 365.699219 34.355469 C 366.871094 34.269531 368.042969 34.210938 369.21875 34.167969 C 370.894531 34.109375 372.574219 34.101562 374.25 33.996094 C 375.917969 33.890625 377.554688 33.628906 379.179688 33.238281 C 380.648438 32.886719 382.132812 32.511719 383.566406 32.027344 C 384.785156 31.613281 386.011719 31.046875 386.878906 30.0625 C 387.730469 29.089844 388.089844 27.839844 388.308594 26.59375 C 388.53125 25.3125 388.625 24 389.03125 22.761719 C 389.207031 22.234375 389.464844 21.753906 389.738281 21.277344 C 390.585938 21.222656 391.4375 21.164062 392.285156 21.109375 C 394.574219 20.953125 396.886719 20.875 399.148438 20.492188 C 400.257812 20.300781 401.332031 20.007812 402.390625 19.632812 C 403.421875 19.273438 404.441406 18.867188 405.496094 18.578125 C 407.773438 17.945312 410.066406 18.171875 412.351562 18.648438 C 413.292969 18.84375 414.304688 19 415.007812 18.1875 C 415.5625 17.546875 415.699219 16.664062 415.546875 15.851562 Z M 322.699219 36.714844 C 321.929688 37.035156 321.160156 37.359375 320.390625 37.691406 C 320.238281 37.152344 320.046875 36.625 319.777344 36.148438 C 320.144531 36.171875 320.515625 36.171875 320.882812 36.152344 C 321.210938 36.136719 321.558594 36.082031 321.886719 36.144531 C 322.195312 36.203125 322.460938 36.382812 322.730469 36.53125 C 322.792969 36.566406 322.851562 36.597656 322.914062 36.628906 C 322.839844 36.660156 322.769531 36.6875 322.699219 36.714844 Z M 322.699219 36.714844 " fill-opacity="1" fill-rule="nonzero"/></g><g fill="#000000" fill-opacity="1"><g transform="translate(21.97071, 142.729849)"><g><path d="M 35.828125 -33.578125 L 35.828125 0 L 24.515625 0 L 24.515625 -12.375 L 14.0625 -12.375 L 14.0625 0 L 2.734375 0 L 2.734375 -33.578125 L 14.0625 -33.578125 L 14.0625 -21.6875 L 24.515625 -21.6875 L 24.515625 -33.578125 Z M 35.828125 -33.578125 "/></g></g></g><g fill="#000000" fill-opacity="1"><g transform="translate(65.033798, 142.729849)"><g><path d="M 11.21875 0.765625 C 8.601562 0.765625 6.226562 0.34375 4.09375 -0.5 C 1.96875 -1.351562 0.21875 -2.59375 -1.15625 -4.21875 L 4.9375 -11.421875 C 5.832031 -10.296875 6.710938 -9.460938 7.578125 -8.921875 C 8.441406 -8.378906 9.335938 -8.109375 10.265625 -8.109375 C 11.453125 -8.109375 12.351562 -8.457031 12.96875 -9.15625 C 13.59375 -9.863281 13.90625 -10.90625 13.90625 -12.28125 L 13.90625 -25.046875 L 2.5 -25.046875 L 2.5 -33.578125 L 25.09375 -33.578125 L 25.09375 -12.953125 C 25.09375 -8.378906 23.914062 -4.945312 21.5625 -2.65625 C 19.207031 -0.375 15.757812 0.765625 11.21875 0.765625 Z M 11.21875 0.765625 "/></g></g></g><g fill="#000000" fill-opacity="1"><g transform="translate(97.06774, 142.729849)"><g><path d="M 20.34375 0.765625 C 16.726562 0.765625 13.476562 0.015625 10.59375 -1.484375 C 7.71875 -2.984375 5.460938 -5.066406 3.828125 -7.734375 C 2.203125 -10.410156 1.390625 -13.429688 1.390625 -16.796875 C 1.390625 -20.148438 2.203125 -23.160156 3.828125 -25.828125 C 5.460938 -28.503906 7.71875 -30.59375 10.59375 -32.09375 C 13.476562 -33.59375 16.726562 -34.34375 20.34375 -34.34375 C 23.957031 -34.34375 27.203125 -33.59375 30.078125 -32.09375 C 32.953125 -30.59375 35.203125 -28.503906 36.828125 -25.828125 C 38.460938 -23.160156 39.28125 -20.148438 39.28125 -16.796875 C 39.28125 -13.429688 38.460938 -10.410156 36.828125 -7.734375 C 35.203125 -5.066406 32.953125 -2.984375 30.078125 -1.484375 C 27.203125 0.015625 23.957031 0.765625 20.34375 0.765625 Z M 20.34375 -8.390625 C 21.75 -8.390625 23.019531 -8.734375 24.15625 -9.421875 C 25.289062 -10.109375 26.191406 -11.082031 26.859375 -12.34375 C 27.535156 -13.613281 27.875 -15.097656 27.875 -16.796875 C 27.875 -18.484375 27.535156 -19.957031 26.859375 -21.21875 C 26.191406 -22.488281 25.289062 -23.46875 24.15625 -24.15625 C 23.019531 -24.84375 21.75 -25.1875 20.34375 -25.1875 C 18.9375 -25.1875 17.664062 -24.84375 16.53125 -24.15625 C 15.394531 -23.46875 14.488281 -22.488281 13.8125 -21.21875 C 13.144531 -19.957031 12.8125 -18.484375 12.8125 -16.796875 C 12.8125 -15.097656 13.144531 -13.613281 13.8125 -12.34375 C 14.488281 -11.082031 15.394531 -10.109375 16.53125 -9.421875 C 17.664062 -8.734375 18.9375 -8.390625 20.34375 -8.390625 Z M 31.515625 -36.9375 L 37.75 -36.9375 L 9.171875 3.359375 L 2.9375 3.359375 Z M 31.515625 -36.9375 "/></g></g></g><g fill="#000000" fill-opacity="1"><g transform="translate(142.240749, 142.729849)"><g><path d="M 17.125 -8.4375 L 14.0625 -8.4375 L 14.0625 0 L 2.734375 0 L 2.734375 -33.578125 L 18.90625 -33.578125 C 22 -33.578125 24.695312 -33.066406 27 -32.046875 C 29.300781 -31.023438 31.078125 -29.550781 32.328125 -27.625 C 33.578125 -25.707031 34.203125 -23.472656 34.203125 -20.921875 C 34.203125 -18.515625 33.65625 -16.414062 32.5625 -14.625 C 31.476562 -12.832031 29.914062 -11.410156 27.875 -10.359375 L 34.921875 0 L 22.828125 0 Z M 22.78125 -20.921875 C 22.78125 -22.160156 22.394531 -23.125 21.625 -23.8125 C 20.863281 -24.5 19.71875 -24.84375 18.1875 -24.84375 L 14.0625 -24.84375 L 14.0625 -16.984375 L 18.1875 -16.984375 C 19.71875 -16.984375 20.863281 -17.328125 21.625 -18.015625 C 22.394531 -18.703125 22.78125 -19.671875 22.78125 -20.921875 Z M 22.78125 -20.921875 "/></g></g></g><g fill="#000000" fill-opacity="1"><g transform="translate(182.474618, 142.729849)"><g><path d="M 17.125 -8.4375 L 14.0625 -8.4375 L 14.0625 0 L 2.734375 0 L 2.734375 -33.578125 L 18.90625 -33.578125 C 22 -33.578125 24.695312 -33.066406 27 -32.046875 C 29.300781 -31.023438 31.078125 -29.550781 32.328125 -27.625 C 33.578125 -25.707031 34.203125 -23.472656 34.203125 -20.921875 C 34.203125 -18.515625 33.65625 -16.414062 32.5625 -14.625 C 31.476562 -12.832031 29.914062 -11.410156 27.875 -10.359375 L 34.921875 0 L 22.828125 0 Z M 22.78125 -20.921875 C 22.78125 -22.160156 22.394531 -23.125 21.625 -23.8125 C 20.863281 -24.5 19.71875 -24.84375 18.1875 -24.84375 L 14.0625 -24.84375 L 14.0625 -16.984375 L 18.1875 -16.984375 C 19.71875 -16.984375 20.863281 -17.328125 21.625 -18.015625 C 22.394531 -18.703125 22.78125 -19.671875 22.78125 -20.921875 Z M 22.78125 -20.921875 "/></g></g></g><g fill="#000000" fill-opacity="1"><g transform="translate(222.708487, 142.729849)"><g><path d="M 2.734375 -33.578125 L 14.0625 -33.578125 L 14.0625 0 L 2.734375 0 Z M 2.734375 -33.578125 "/></g></g></g><g fill="#000000" fill-opacity="1"><g transform="translate(244.000992, 142.729849)"><g><path d="M 35.828125 -33.578125 L 35.828125 0 L 26.53125 0 L 13.765625 -15.25 L 13.765625 0 L 2.734375 0 L 2.734375 -33.578125 L 12.046875 -33.578125 L 24.796875 -18.328125 L 24.796875 -33.578125 Z M 35.828125 -33.578125 "/></g></g></g><g fill="#000000" fill-opacity="1"><g transform="translate(287.064091, 142.729849)"><g><path d="M 24.9375 -17.703125 L 34.78125 -17.703125 L 34.78125 -3.5 C 32.789062 -2.125 30.484375 -1.066406 27.859375 -0.328125 C 25.242188 0.398438 22.671875 0.765625 20.140625 0.765625 C 16.566406 0.765625 13.351562 0.0234375 10.5 -1.453125 C 7.65625 -2.941406 5.425781 -5.019531 3.8125 -7.6875 C 2.195312 -10.363281 1.390625 -13.398438 1.390625 -16.796875 C 1.390625 -20.179688 2.195312 -23.207031 3.8125 -25.875 C 5.425781 -28.550781 7.679688 -30.628906 10.578125 -32.109375 C 13.472656 -33.597656 16.742188 -34.34375 20.390625 -34.34375 C 23.679688 -34.34375 26.628906 -33.789062 29.234375 -32.6875 C 31.835938 -31.582031 34.003906 -29.976562 35.734375 -27.875 L 28.5 -21.484375 C 26.382812 -23.953125 23.875 -25.1875 20.96875 -25.1875 C 18.46875 -25.1875 16.484375 -24.429688 15.015625 -22.921875 C 13.546875 -21.421875 12.8125 -19.378906 12.8125 -16.796875 C 12.8125 -14.265625 13.535156 -12.226562 14.984375 -10.6875 C 16.441406 -9.15625 18.382812 -8.390625 20.8125 -8.390625 C 22.257812 -8.390625 23.632812 -8.660156 24.9375 -9.203125 Z M 24.9375 -17.703125 "/></g></g></g><g fill="#000000" fill-opacity="1"><g transform="translate(328.448823, 142.729849)"><g/></g></g><g fill="#000000" fill-opacity="1"><g transform="translate(347.343687, 142.729849)"><g><path d="M 11.21875 0.765625 C 8.601562 0.765625 6.226562 0.34375 4.09375 -0.5 C 1.96875 -1.351562 0.21875 -2.59375 -1.15625 -4.21875 L 4.9375 -11.421875 C 5.832031 -10.296875 6.710938 -9.460938 7.578125 -8.921875 C 8.441406 -8.378906 9.335938 -8.109375 10.265625 -8.109375 C 11.453125 -8.109375 12.351562 -8.457031 12.96875 -9.15625 C 13.59375 -9.863281 13.90625 -10.90625 13.90625 -12.28125 L 13.90625 -25.046875 L 2.5 -25.046875 L 2.5 -33.578125 L 25.09375 -33.578125 L 25.09375 -12.953125 C 25.09375 -8.378906 23.914062 -4.945312 21.5625 -2.65625 C 19.207031 -0.375 15.757812 0.765625 11.21875 0.765625 Z M 11.21875 0.765625 "/></g></g></g><g fill="#000000" fill-opacity="1"><g transform="translate(379.37763, 142.729849)"><g><path d="M 2.734375 -33.578125 L 14.0625 -33.578125 L 14.0625 0 L 2.734375 0 Z M 2.734375 -33.578125 "/></g></g></g><g fill="#000000" fill-opacity="1"><g transform="translate(400.670135, 142.729849)"><g><path d="M 18.796875 0.765625 C 13.648438 0.765625 9.640625 -0.625 6.765625 -3.40625 C 3.890625 -6.1875 2.453125 -10.085938 2.453125 -15.109375 L 2.453125 -33.578125 L 13.765625 -33.578125 L 13.765625 -15.453125 C 13.765625 -12.984375 14.203125 -11.1875 15.078125 -10.0625 C 15.960938 -8.945312 17.238281 -8.390625 18.90625 -8.390625 C 20.5625 -8.390625 21.828125 -8.945312 22.703125 -10.0625 C 23.585938 -11.1875 24.03125 -12.984375 24.03125 -15.453125 L 24.03125 -33.578125 L 35.15625 -33.578125 L 35.15625 -15.109375 C 35.15625 -10.085938 33.71875 -6.1875 30.84375 -3.40625 C 27.96875 -0.625 23.953125 0.765625 18.796875 0.765625 Z M 18.796875 0.765625 "/></g></g></g><g fill="#000000" fill-opacity="1"><g transform="translate(442.774141, 142.729849)"><g><path d="M 2.15625 -17.9375 L 16.546875 -17.9375 L 16.546875 -9.78125 L 2.15625 -9.78125 Z M 2.15625 -17.9375 "/></g></g></g><g fill="#000000" fill-opacity="1"><g transform="translate(465.025557, 142.729849)"><g><path d="M 11.21875 0.765625 C 8.601562 0.765625 6.226562 0.34375 4.09375 -0.5 C 1.96875 -1.351562 0.21875 -2.59375 -1.15625 -4.21875 L 4.9375 -11.421875 C 5.832031 -10.296875 6.710938 -9.460938 7.578125 -8.921875 C 8.441406 -8.378906 9.335938 -8.109375 10.265625 -8.109375 C 11.453125 -8.109375 12.351562 -8.457031 12.96875 -9.15625 C 13.59375 -9.863281 13.90625 -10.90625 13.90625 -12.28125 L 13.90625 -25.046875 L 2.5 -25.046875 L 2.5 -33.578125 L 25.09375 -33.578125 L 25.09375 -12.953125 C 25.09375 -8.378906 23.914062 -4.945312 21.5625 -2.65625 C 19.207031 -0.375 15.757812 0.765625 11.21875 0.765625 Z M 11.21875 0.765625 "/></g></g></g><g fill="#000000" fill-opacity="1"><g transform="translate(497.059499, 142.729849)"><g><path d="M 2.734375 -33.578125 L 14.0625 -33.578125 L 14.0625 0 L 2.734375 0 Z M 2.734375 -33.578125 "/></g></g></g><g fill="#000000" fill-opacity="1"><g transform="translate(518.352005, 142.729849)"><g><path d="M 10.03125 -24.796875 L 0.1875 -24.796875 L 0.1875 -33.578125 L 31.1875 -33.578125 L 31.1875 -24.796875 L 21.34375 -24.796875 L 21.34375 0 L 10.03125 0 Z M 10.03125 -24.796875 "/></g></g></g><g fill="#000000" fill-opacity="1"><g transform="translate(554.222182, 142.729849)"><g><path d="M 15.25 0.765625 C 12.46875 0.765625 9.757812 0.453125 7.125 -0.171875 C 4.488281 -0.796875 2.320312 -1.632812 0.625 -2.6875 L 4.265625 -10.9375 C 5.867188 -10.007812 7.660156 -9.265625 9.640625 -8.703125 C 11.617188 -8.140625 13.519531 -7.859375 15.34375 -7.859375 C 16.914062 -7.859375 18.035156 -8.007812 18.703125 -8.3125 C 19.378906 -8.625 19.71875 -9.082031 19.71875 -9.6875 C 19.71875 -10.394531 19.273438 -10.921875 18.390625 -11.265625 C 17.515625 -11.617188 16.070312 -12.003906 14.0625 -12.421875 C 11.46875 -12.960938 9.304688 -13.546875 7.578125 -14.171875 C 5.847656 -14.796875 4.34375 -15.816406 3.0625 -17.234375 C 1.789062 -18.660156 1.15625 -20.59375 1.15625 -23.03125 C 1.15625 -25.132812 1.742188 -27.050781 2.921875 -28.78125 C 4.109375 -30.507812 5.875 -31.867188 8.21875 -32.859375 C 10.570312 -33.847656 13.429688 -34.34375 16.796875 -34.34375 C 19.097656 -34.34375 21.359375 -34.09375 23.578125 -33.59375 C 25.796875 -33.101562 27.753906 -32.378906 29.453125 -31.421875 L 26.046875 -23.21875 C 22.753906 -24.882812 19.632812 -25.71875 16.6875 -25.71875 C 13.78125 -25.71875 12.328125 -25.007812 12.328125 -23.59375 C 12.328125 -22.925781 12.757812 -22.425781 13.625 -22.09375 C 14.488281 -21.757812 15.910156 -21.398438 17.890625 -21.015625 C 20.453125 -20.535156 22.609375 -19.984375 24.359375 -19.359375 C 26.117188 -18.734375 27.644531 -17.71875 28.9375 -16.3125 C 30.238281 -14.90625 30.890625 -12.984375 30.890625 -10.546875 C 30.890625 -8.441406 30.296875 -6.53125 29.109375 -4.8125 C 27.929688 -3.101562 26.164062 -1.742188 23.8125 -0.734375 C 21.46875 0.265625 18.613281 0.765625 15.25 0.765625 Z M 15.25 0.765625 "/></g></g></g><g fill="#000000" fill-opacity="1"><g transform="translate(590.236195, 142.729849)"><g><path d="M 18.796875 0.765625 C 13.648438 0.765625 9.640625 -0.625 6.765625 -3.40625 C 3.890625 -6.1875 2.453125 -10.085938 2.453125 -15.109375 L 2.453125 -33.578125 L 13.765625 -33.578125 L 13.765625 -15.453125 C 13.765625 -12.984375 14.203125 -11.1875 15.078125 -10.0625 C 15.960938 -8.945312 17.238281 -8.390625 18.90625 -8.390625 C 20.5625 -8.390625 21.828125 -8.945312 22.703125 -10.0625 C 23.585938 -11.1875 24.03125 -12.984375 24.03125 -15.453125 L 24.03125 -33.578125 L 35.15625 -33.578125 L 35.15625 -15.109375 C 35.15625 -10.085938 33.71875 -6.1875 30.84375 -3.40625 C 27.96875 -0.625 23.953125 0.765625 18.796875 0.765625 Z M 18.796875 0.765625 "/></g></g></g><g fill="#000000" fill-opacity="1"><g transform="translate(632.340247, 142.729849)"><g/></g></g><g fill="#000000" fill-opacity="1"><g transform="translate(651.235066, 142.729849)"><g><path d="M 16.40625 -11.125 L 13.859375 -8.296875 L 13.859375 0 L 2.734375 0 L 2.734375 -33.578125 L 13.859375 -33.578125 L 13.859375 -21.390625 L 24.890625 -33.578125 L 37.21875 -33.578125 L 23.796875 -18.796875 L 37.890625 0 L 24.796875 0 Z M 16.40625 -11.125 "/></g></g></g><g fill="#000000" fill-opacity="1"><g transform="translate(692.428016, 142.729849)"><g><path d="M 2.734375 -33.578125 L 14.0625 -33.578125 L 14.0625 -8.78125 L 29.21875 -8.78125 L 29.21875 0 L 2.734375 0 Z M 2.734375 -33.578125 "/></g></g></g><g fill="#000000" fill-opacity="1"><g transform="translate(726.284117, 142.729849)"><g><path d="M 18.796875 0.765625 C 13.648438 0.765625 9.640625 -0.625 6.765625 -3.40625 C 3.890625 -6.1875 2.453125 -10.085938 2.453125 -15.109375 L 2.453125 -33.578125 L 13.765625 -33.578125 L 13.765625 -15.453125 C 13.765625 -12.984375 14.203125 -11.1875 15.078125 -10.0625 C 15.960938 -8.945312 17.238281 -8.390625 18.90625 -8.390625 C 20.5625 -8.390625 21.828125 -8.945312 22.703125 -10.0625 C 23.585938 -11.1875 24.03125 -12.984375 24.03125 -15.453125 L 24.03125 -33.578125 L 35.15625 -33.578125 L 35.15625 -15.109375 C 35.15625 -10.085938 33.71875 -6.1875 30.84375 -3.40625 C 27.96875 -0.625 23.953125 0.765625 18.796875 0.765625 Z M 18.796875 0.765625 "/></g></g></g><g fill="#000000" fill-opacity="1"><g transform="translate(768.388122, 142.729849)"><g><path d="M 29.59375 -17.5625 C 31.582031 -16.820312 33.117188 -15.75 34.203125 -14.34375 C 35.285156 -12.9375 35.828125 -11.242188 35.828125 -9.265625 C 35.828125 -6.316406 34.613281 -4.035156 32.1875 -2.421875 C 29.757812 -0.804688 26.242188 0 21.640625 0 L 2.734375 0 L 2.734375 -33.578125 L 20.671875 -33.578125 C 25.148438 -33.578125 28.53125 -32.773438 30.8125 -31.171875 C 33.101562 -29.578125 34.25 -27.453125 34.25 -24.796875 C 34.25 -23.234375 33.859375 -21.828125 33.078125 -20.578125 C 32.296875 -19.328125 31.132812 -18.320312 29.59375 -17.5625 Z M 13.859375 -25.65625 L 13.859375 -20.671875 L 19.140625 -20.671875 C 21.597656 -20.671875 22.828125 -21.503906 22.828125 -23.171875 C 22.828125 -24.828125 21.597656 -25.65625 19.140625 -25.65625 Z M 20.671875 -7.921875 C 23.171875 -7.921875 24.421875 -8.796875 24.421875 -10.546875 C 24.421875 -12.304688 23.171875 -13.1875 20.671875 -13.1875 L 13.859375 -13.1875 L 13.859375 -7.921875 Z M 20.671875 -7.921875 "/></g></g></g></svg>