<svg xmlns="http://www.w3.org/2000/svg" xmlns:xlink="http://www.w3.org/1999/xlink" width="789" zoomAndPan="magnify" viewBox="0 0 591.75 500.249999" height="667" preserveAspectRatio="xMidYMid meet" version="1.0"><defs><clipPath id="550b2fc1e9"><path d="M 47.234375 20.980469 L 551.734375 20.980469 L 551.734375 474.847656 L 47.234375 474.847656 Z M 47.234375 20.980469 " clip-rule="nonzero"/></clipPath></defs><g clip-path="url(#550b2fc1e9)"><path fill="#ee202d" d="M 429.75 52.570312 C 429.75 52.570312 429.75 52.570312 429.75 52.972656 C 429.75 52.972656 429.75 52.972656 430.152344 52.972656 C 431.351562 52.167969 434.167969 51.765625 434.964844 53.375 C 435.367188 53.777344 435.367188 54.574219 434.964844 54.976562 C 434.167969 55.78125 433.765625 56.183594 433.363281 56.183594 C 433.363281 56.183594 433.363281 56.585938 433.363281 56.585938 C 433.363281 56.585938 433.765625 56.585938 434.964844 56.183594 C 438.585938 55.78125 438.183594 59.796875 435.769531 60.199219 C 435.367188 60.199219 434.964844 60.199219 434.964844 60.199219 C 434.964844 60.199219 434.964844 60.199219 434.964844 60.601562 C 435.769531 61.003906 437.78125 59.796875 438.183594 61.40625 C 438.980469 63.007812 437.378906 64.617188 435.769531 65.019531 C 435.769531 65.019531 435.769531 65.019531 435.367188 65.019531 C 435.367188 65.019531 435.367188 65.019531 435.367188 65.421875 C 435.367188 65.421875 435.769531 65.421875 435.769531 65.421875 C 439.382812 66.621094 435.769531 69.839844 433.765625 70.234375 C 433.765625 70.636719 433.765625 70.636719 433.765625 70.636719 C 433.765625 70.636719 433.765625 70.636719 433.765625 71.039062 L 434.570312 72.648438 C 434.570312 72.648438 434.570312 73.050781 434.570312 73.050781 C 433.765625 74.652344 432.960938 75.457031 432.15625 75.859375 C 429.347656 77.066406 427.335938 78.265625 426.136719 79.472656 C 424.929688 80.277344 423.722656 80.679688 422.515625 81.484375 C 422.515625 81.484375 422.515625 81.484375 422.515625 81.886719 L 436.574219 81.484375 C 436.976562 81.484375 436.976562 81.484375 436.976562 81.484375 L 441.796875 82.683594 C 442.199219 82.683594 442.601562 82.683594 442.996094 82.683594 C 452.234375 81.082031 461.070312 80.679688 469.101562 85.902344 C 470.308594 86.296875 471.910156 86.699219 473.921875 87.101562 C 473.921875 87.101562 474.324219 87.101562 474.324219 87.101562 C 474.324219 87.101562 474.324219 87.101562 474.324219 86.699219 C 473.921875 85.5 473.519531 84.695312 473.519531 83.890625 C 473.519531 83.890625 473.519531 83.890625 473.519531 83.488281 C 473.519531 83.488281 473.519531 83.085938 473.117188 83.085938 C 470.710938 82.683594 469.90625 81.484375 470.710938 80.277344 C 471.507812 78.265625 472.714844 75.859375 473.921875 73.050781 C 474.726562 71.039062 473.921875 70.234375 472.714844 68.230469 C 472.714844 68.230469 472.714844 67.828125 472.714844 67.828125 L 473.921875 58.992188 C 473.921875 58.589844 473.519531 58.1875 473.519531 57.792969 C 471.105469 53.777344 472.3125 49.761719 475.121094 46.140625 C 476.730469 43.332031 479.539062 43.332031 482.355469 42.527344 C 484.359375 42.125 486.773438 40.925781 489.179688 40.523438 C 493.195312 39.71875 496.808594 38.109375 500.421875 37.714844 C 504.035156 37.3125 507.648438 37.714844 510.464844 38.914062 C 512.871094 39.71875 514.078125 40.121094 514.480469 40.121094 C 518.09375 41.328125 521.304688 42.527344 522.914062 45.746094 C 524.113281 46.945312 524.113281 48.554688 524.917969 50.15625 C 524.917969 50.960938 525.320312 51.363281 525.722656 51.765625 C 527.324219 54.171875 528.53125 56.183594 528.53125 58.992188 C 528.933594 65.019531 527.324219 71.039062 526.125 76.261719 C 525.320312 80.679688 522.109375 85.097656 521.707031 89.917969 C 521.304688 93.128906 521.304688 96.339844 521.304688 99.550781 C 521.304688 99.953125 521.304688 99.953125 521.707031 100.355469 C 524.113281 101.160156 528.53125 101.964844 529.738281 103.566406 C 530.140625 103.96875 530.140625 103.96875 530.140625 104.371094 L 529.335938 115.210938 C 529.335938 115.210938 529.335938 115.613281 529.738281 116.015625 C 531.339844 118.824219 532.949219 120.835938 533.351562 121.640625 C 536.964844 126.058594 538.976562 129.269531 542.589844 132.882812 C 543.394531 134.089844 544.996094 135.691406 546.605469 138.105469 C 550.21875 143.320312 551.820312 148.140625 551.820312 154.574219 C 551.820312 160.59375 551.023438 167.011719 549.011719 173.042969 C 547.410156 178.265625 546.605469 182.683594 543.394531 186.296875 C 542.992188 186.699219 542.589844 187.09375 542.589844 187.496094 C 542.1875 189.105469 541.785156 191.109375 540.980469 192.71875 C 536.964844 202.359375 532.144531 211.589844 527.324219 220.828125 C 526.125 222.839844 524.515625 224.441406 522.511719 226.050781 C 518.09375 229.261719 514.078125 231.273438 510.464844 232.875 C 503.230469 235.289062 494.804688 237.292969 485.96875 238.902344 C 483.554688 239.304688 482.355469 237.695312 481.550781 235.683594 C 478.339844 228.054688 478.339844 219.621094 480.746094 211.589844 C 480.746094 211.1875 480.34375 210.792969 479.941406 210.792969 L 471.910156 209.585938 C 471.910156 209.585938 471.507812 209.585938 471.507812 209.585938 L 465.488281 213.601562 C 465.085938 214.003906 464.683594 214.003906 464.683594 214.40625 C 464.28125 214.808594 463.878906 215.210938 463.476562 216.410156 C 461.875 218.824219 457.054688 219.226562 454.648438 217.617188 C 454.246094 217.214844 453.84375 217.214844 453.441406 217.214844 C 452.234375 217.617188 450.632812 218.019531 449.425781 218.421875 C 449.023438 218.421875 449.023438 218.824219 449.023438 218.824219 C 449.023438 219.621094 450.230469 222.4375 452.636719 227.652344 C 458.261719 240.101562 467.089844 248.535156 479.539062 254.160156 C 489.179688 258.175781 499.214844 260.582031 510.0625 260.984375 C 510.464844 260.984375 510.464844 260.984375 510.464844 261.386719 C 509.660156 266.207031 508.050781 271.027344 505.242188 275.445312 C 505.242188 275.839844 504.839844 275.839844 504.4375 275.839844 C 498.820312 273.835938 488.375 271.429688 481.550781 268.613281 C 475.925781 265.804688 470.710938 262.59375 466.695312 258.578125 C 456.652344 249.339844 450.230469 237.695312 445.8125 224.441406 C 445.8125 224.039062 445.410156 223.636719 445.410156 223.242188 C 445.410156 223.242188 445.410156 223.242188 445.007812 223.242188 C 445.007812 223.242188 444.605469 223.242188 444.605469 223.636719 C 444.203125 224.039062 443.800781 224.441406 443.398438 224.84375 C 442.996094 224.84375 442.996094 225.246094 442.996094 225.246094 C 443.398438 227.257812 443.800781 228.457031 443.800781 228.859375 C 445.410156 233.277344 446.214844 236.085938 446.214844 237.292969 C 446.617188 240.90625 447.011719 244.921875 447.011719 249.339844 C 447.011719 250.546875 447.414062 251.351562 448.21875 252.148438 C 449.023438 253.355469 450.230469 254.964844 452.636719 257.371094 C 452.636719 257.773438 453.039062 258.175781 452.636719 258.578125 C 451.429688 262.996094 450.230469 267.414062 448.621094 271.824219 C 448.21875 273.835938 447.414062 275.445312 446.617188 277.046875 C 446.617188 277.449219 446.617188 277.449219 446.214844 277.449219 C 446.214844 277.449219 446.214844 277.449219 445.8125 277.449219 L 438.980469 270.222656 C 438.980469 286.285156 438.585938 301.949219 436.171875 317.609375 C 436.171875 319.21875 436.171875 321.222656 436.171875 322.832031 C 436.574219 327.652344 436.976562 330.863281 436.574219 333.269531 C 436.574219 341.703125 432.558594 348.929688 428.140625 356.164062 C 426.933594 358.570312 426.136719 360.976562 426.136719 364.195312 C 425.734375 369.410156 425.332031 372.226562 424.929688 373.828125 C 421.71875 387.484375 419.707031 401.535156 418.105469 415.996094 C 418.105469 416.398438 417.703125 416.804688 417.300781 417.195312 C 415.289062 418 413.6875 418.402344 412.480469 418 C 412.078125 418 411.675781 418.402344 411.675781 418.402344 C 410.46875 425.628906 411.273438 438.484375 418.5 442.097656 C 424.527344 445.710938 429.75 448.527344 433.765625 451.335938 C 434.570312 451.738281 434.964844 452.140625 435.367188 452.140625 C 437.378906 452.945312 439.785156 453.742188 442.996094 454.546875 C 444.605469 454.949219 445.410156 456.15625 447.414062 456.15625 C 447.816406 456.15625 448.21875 456.558594 448.621094 456.960938 C 450.230469 461.371094 445.8125 462.175781 442.199219 462.175781 C 439.785156 462.578125 438.183594 462.175781 434.964844 461.773438 C 434.570312 461.773438 434.570312 461.773438 434.167969 461.773438 L 432.15625 462.578125 C 432.15625 462.578125 431.753906 462.578125 431.351562 462.578125 C 427.738281 462.980469 424.527344 462.578125 421.316406 462.175781 C 413.6875 460.574219 405.65625 460.171875 397.625 461.371094 C 394.808594 461.773438 391.195312 461.773438 387.984375 461.371094 C 383.96875 460.976562 381.964844 458.5625 382.359375 454.144531 C 382.761719 449.324219 383.96875 446.113281 386.375 440.09375 C 387.179688 437.273438 387.984375 434.0625 387.984375 430.449219 C 388.789062 423.625 389.191406 416.804688 388.789062 410.371094 C 388.789062 409.96875 388.789062 409.96875 388.386719 409.96875 C 381.160156 406.355469 376.339844 404.746094 371.519531 401.132812 C 371.117188 401.132812 371.117188 400.730469 371.117188 400.730469 C 371.117188 400.730469 371.117188 400.730469 371.117188 400.335938 C 376.339844 375.839844 381.160156 354.554688 385.175781 336.085938 C 387.179688 325.238281 388.789062 314.398438 388.386719 303.558594 C 388.386719 301.546875 387.984375 299.140625 387.582031 295.917969 C 385.175781 283.074219 383.566406 275.445312 383.164062 273.433594 C 380.355469 258.175781 377.949219 242.113281 376.339844 225.246094 C 376.339844 224.441406 375.9375 224.039062 375.535156 223.242188 C 371.117188 215.605469 367.101562 207.976562 363.488281 199.945312 C 363.085938 199.542969 362.683594 198.746094 362.28125 198.34375 L 328.554688 154.964844 C 328.554688 154.574219 328.152344 154.574219 327.75 154.574219 C 318.109375 161.800781 308.878906 169.027344 298.835938 177.058594 C 296.027344 179.464844 293.21875 182.28125 290.402344 185.089844 C 286.789062 189.105469 279.5625 196.734375 269.125 208.378906 C 269.125 208.378906 269.125 208.378906 269.125 208.78125 C 269.125 208.78125 269.125 208.78125 269.519531 208.78125 C 280.367188 211.1875 290.402344 214.808594 300.445312 219.621094 C 302.046875 220.425781 304.058594 221.230469 305.265625 222.4375 C 305.660156 222.839844 305.660156 223.242188 305.660156 223.636719 L 298.433594 232.070312 C 298.433594 232.472656 298.03125 232.472656 297.628906 232.472656 C 297.628906 232.472656 297.234375 232.472656 297.234375 232.472656 C 286.789062 225.246094 275.546875 220.023438 263.097656 216.410156 C 262.695312 216.410156 262.292969 216.410156 261.890625 216.8125 L 249.441406 232.070312 C 249.441406 232.070312 249.441406 232.472656 249.441406 232.875 C 256.675781 244.117188 266.710938 253.355469 277.15625 261.386719 C 277.550781 261.386719 277.953125 261.789062 277.953125 262.191406 C 277.953125 262.59375 277.550781 262.996094 277.550781 262.996094 L 269.519531 271.027344 C 269.125 271.429688 268.722656 271.429688 268.320312 271.429688 C 258.277344 262.59375 249.84375 252.550781 243.019531 240.90625 C 242.617188 240.90625 242.617188 240.90625 242.214844 240.90625 L 235.390625 248.535156 C 235.390625 248.9375 235.390625 248.9375 235.390625 248.9375 C 234.183594 252.953125 231.777344 258.578125 228.164062 265.804688 C 226.957031 268.210938 226.554688 270.625 226.152344 273.03125 C 225.75 274.238281 224.945312 280.660156 223.34375 292.707031 C 222.539062 297.933594 220.535156 303.949219 219.328125 309.175781 C 216.519531 318.414062 214.105469 326.847656 211.296875 334.476562 C 208.882812 342.105469 206.878906 347.328125 205.671875 350.136719 C 203.265625 354.957031 201.65625 358.570312 200.457031 360.574219 C 198.042969 364.589844 196.441406 367.808594 195.234375 370.617188 C 191.621094 381.054688 186.800781 390.695312 181.578125 399.53125 C 180.378906 401.132812 177.5625 405.953125 172.347656 414.386719 C 171.542969 415.59375 167.527344 415.59375 165.914062 415.996094 C 165.511719 415.996094 165.109375 415.996094 165.109375 416.398438 C 161.496094 424.433594 159.496094 431.660156 158.289062 438.484375 C 157.882812 441.289062 157.882812 443.707031 159.09375 446.515625 C 160.300781 450.933594 161.496094 454.144531 162.707031 457.355469 C 163.914062 459.367188 165.511719 462.980469 167.929688 463.785156 C 168.332031 464.1875 169.527344 464.589844 171.140625 464.992188 C 171.542969 464.992188 171.542969 464.992188 171.945312 464.992188 L 173.140625 466.59375 C 173.542969 466.996094 173.949219 467.398438 174.351562 467.398438 L 177.5625 468.203125 C 177.964844 468.203125 178.367188 468.203125 178.367188 468.605469 C 177.964844 471.414062 176.753906 472.621094 174.753906 472.621094 C 173.949219 472.621094 173.140625 472.621094 172.738281 472.621094 C 171.945312 473.023438 171.140625 473.023438 170.738281 473.023438 C 170.738281 472.621094 170.335938 472.621094 170.335938 473.023438 C 168.722656 474.222656 167.125 473.820312 165.511719 473.023438 C 165.511719 473.023438 165.109375 473.023438 164.707031 473.417969 C 162.707031 474.625 160.300781 475.027344 157.480469 474.625 C 157.078125 474.625 155.882812 473.820312 153.867188 472.21875 C 150.253906 469.804688 147.851562 468.605469 145.835938 465.386719 C 143.835938 462.980469 142.222656 460.574219 140.222656 458.964844 C 139.417969 457.757812 137 456.15625 132.984375 452.945312 C 131.386719 451.738281 128.96875 449.324219 126.160156 446.515625 C 123.351562 442.902344 123.351562 439.289062 126.160156 435.675781 C 128.164062 433.257812 130.175781 431.257812 132.984375 430.046875 C 132.984375 429.644531 133.386719 429.242188 133.789062 429.242188 C 137.402344 422.820312 140.222656 415.996094 142.222656 408.761719 C 142.222656 408.367188 142.222656 407.964844 141.820312 407.964844 C 138.207031 404.746094 134.996094 400.730469 132.984375 396.320312 C 132.582031 395.917969 132.582031 395.917969 132.582031 395.515625 C 132.984375 395.113281 132.984375 394.308594 133.386719 393.90625 C 136.207031 388.289062 138.609375 383.46875 140.222656 379.855469 C 141.820312 377.039062 145.03125 375.035156 147.851562 372.621094 C 149.046875 371.824219 150.253906 370.617188 150.660156 369.007812 C 152.660156 363.792969 155.078125 358.570312 157.882812 353.347656 C 158.289062 352.542969 158.289062 352.148438 158.289062 351.34375 C 158.289062 349.734375 159.09375 345.71875 160.300781 339.296875 C 161.496094 335.683594 163.109375 332.464844 165.109375 329.65625 C 167.125 327.652344 168.332031 326.042969 169.527344 324.433594 C 169.933594 324.039062 169.933594 324.039062 169.933594 324.039062 L 172.347656 322.429688 C 172.347656 322.429688 172.738281 322.027344 172.738281 321.625 C 172.738281 320.417969 172.347656 318.816406 171.945312 317.207031 C 171.945312 315.605469 171.945312 314.398438 172.738281 312.789062 C 174.351562 310.785156 175.960938 309.175781 177.5625 307.574219 C 177.5625 307.574219 177.964844 307.171875 177.5625 307.171875 C 175.960938 297.125 174.753906 287.886719 174.351562 278.65625 C 174.351562 277.449219 173.949219 276.644531 173.949219 275.839844 C 173.542969 274.238281 172.738281 272.628906 172.347656 271.027344 C 172.347656 270.625 172.347656 269.820312 172.347656 268.613281 C 173.140625 266.207031 172.738281 263.792969 171.945312 261.789062 C 169.125 255.367188 167.125 250.949219 166.320312 248.132812 C 165.914062 247.335938 165.914062 246.933594 165.511719 246.128906 C 163.914062 244.117188 162.304688 240.90625 160.300781 237.695312 C 159.898438 236.488281 159.496094 234.886719 159.898438 233.679688 C 160.691406 230.871094 161.496094 227.652344 162.304688 224.039062 C 162.304688 224.039062 162.304688 223.636719 162.304688 223.636719 L 157.882812 216.8125 C 157.480469 216.8125 157.480469 216.410156 157.078125 216.410156 C 156.675781 216.410156 156.675781 216.410156 156.675781 216.410156 C 154.675781 217.214844 151.464844 219.226562 148.253906 218.421875 C 143.433594 217.214844 139.015625 214.40625 134.996094 212.394531 C 130.175781 210.390625 125.757812 207.171875 121.742188 203.15625 C 117.726562 198.746094 112.90625 194.328125 108.085938 190.3125 C 106.484375 188.703125 105.277344 187.898438 104.472656 187.898438 C 104.472656 187.898438 104.070312 187.898438 104.070312 187.898438 L 99.257812 189.910156 C 98.453125 190.3125 98.050781 190.714844 97.648438 191.109375 C 95.242188 193.523438 93.230469 196.332031 91.628906 198.34375 C 88.410156 202.761719 88.410156 207.976562 89.214844 213.199219 C 89.214844 213.601562 89.214844 214.003906 89.617188 214.40625 C 90.421875 215.210938 91.628906 216.410156 93.230469 218.421875 C 94.4375 220.023438 95.242188 221.230469 95.242188 223.636719 C 95.644531 225.648438 95.644531 227.652344 95.644531 229.664062 C 95.644531 230.066406 96.039062 230.871094 96.441406 230.871094 C 98.855469 231.667969 101.261719 232.875 102.871094 234.082031 C 105.679688 236.488281 109.695312 239.699219 114.917969 243.714844 C 116.117188 244.519531 117.324219 244.519531 116.519531 246.53125 C 116.519531 246.53125 116.117188 246.53125 116.117188 246.53125 C 116.117188 246.933594 116.519531 246.933594 116.519531 246.933594 C 116.519531 246.933594 116.921875 246.933594 116.921875 246.933594 L 118.933594 245.324219 C 124.550781 242.515625 127.773438 241.308594 128.566406 240.90625 C 131.386719 239.699219 133.386719 240.503906 135.804688 242.113281 C 137.402344 243.320312 137.804688 244.117188 137.804688 245.726562 C 137.804688 246.53125 138.609375 246.933594 139.820312 246.933594 C 141.417969 246.933594 143.433594 247.730469 145.03125 248.535156 C 145.433594 248.9375 145.835938 249.339844 145.835938 249.742188 C 145.835938 252.148438 145.433594 253.757812 144.238281 254.964844 C 144.238281 254.964844 143.835938 255.367188 144.238281 255.367188 C 145.03125 258.175781 143.835938 260.984375 141.417969 262.191406 C 141.417969 262.59375 141.417969 262.59375 141.417969 262.996094 C 141.015625 265 140.222656 266.609375 138.609375 267.808594 C 138.207031 267.808594 138.207031 268.210938 138.207031 268.613281 C 137.402344 271.429688 136.597656 272.226562 134.191406 272.628906 C 133.789062 272.628906 133.386719 272.628906 133.386719 273.03125 C 132.191406 274.238281 131.789062 275.445312 129.773438 275.445312 C 129.371094 275.445312 129.371094 275.445312 128.96875 275.445312 C 126.964844 274.640625 123.757812 273.433594 119.335938 271.824219 C 117.324219 271.027344 114.917969 268.210938 113.308594 267.011719 C 110.902344 265.402344 108.085938 264.195312 105.277344 263.398438 C 104.875 263.398438 104.875 263.398438 104.472656 263.398438 C 97.246094 269.820312 89.214844 275.042969 79.976562 277.046875 C 79.582031 277.046875 78.777344 277.046875 78.375 276.644531 C 68.734375 264.195312 58.699219 250.949219 51.867188 236.890625 C 49.460938 231.667969 48.253906 226.453125 47.457031 220.828125 C 47.457031 218.421875 47.457031 215.210938 48.253906 211.1875 C 49.460938 203.15625 50.265625 199.140625 50.265625 198.34375 C 52.671875 187.898438 55.882812 177.863281 60.300781 168.222656 C 62.3125 163.398438 64.316406 158.589844 66.328125 152.960938 C 66.328125 152.558594 66.730469 151.753906 67.535156 151.351562 L 70.746094 149.347656 C 71.550781 148.945312 71.945312 148.140625 71.945312 147.335938 C 72.347656 144.929688 73.554688 142.917969 74.359375 140.914062 C 75.960938 138.105469 77.570312 135.289062 79.179688 132.078125 C 79.582031 131.273438 81.183594 129.671875 81.988281 128.867188 C 83.992188 126.855469 86.003906 124.851562 88.410156 122.042969 C 90.019531 120.03125 92.023438 118.429688 94.035156 117.625 C 94.4375 117.222656 94.4375 117.222656 94.4375 116.820312 L 97.648438 112.804688 C 97.648438 112.804688 97.648438 112.804688 97.648438 112.402344 C 96.84375 109.996094 96.039062 107.179688 94.839844 103.96875 C 94.4375 102.761719 94.839844 101.5625 96.441406 100.757812 C 100.457031 98.746094 104.875 97.144531 109.695312 96.339844 C 109.695312 96.339844 110.097656 95.9375 110.097656 95.9375 C 109.695312 91.519531 109.695312 88.308594 108.890625 86.296875 C 108.488281 85.097656 107.289062 83.488281 105.679688 80.679688 C 102.46875 76.261719 100.457031 69.035156 102.066406 63.8125 C 103.273438 58.589844 104.472656 53.777344 108.488281 50.960938 C 108.890625 50.558594 109.292969 50.15625 109.695312 50.15625 C 110.902344 47.347656 112.101562 45.746094 114.917969 44.539062 C 118.128906 42.929688 121.742188 42.125 125.757812 42.527344 C 125.757812 42.527344 125.757812 42.527344 126.160156 42.527344 L 126.964844 42.929688 C 127.371094 43.332031 127.773438 43.332031 128.164062 43.332031 C 131.789062 43.332031 134.191406 43.332031 135.402344 43.332031 C 143.835938 44.136719 151.464844 46.945312 157.882812 52.167969 C 162.304688 55.78125 164.316406 61.808594 159.09375 65.421875 C 159.09375 65.824219 159.09375 65.824219 159.09375 65.824219 C 158.691406 65.824219 158.691406 65.421875 158.691406 65.421875 L 158.289062 64.214844 C 158.289062 64.214844 158.289062 64.214844 158.289062 63.8125 C 157.882812 63.8125 157.480469 63.8125 157.480469 64.214844 C 157.480469 67.023438 157.882812 69.4375 158.691406 71.84375 C 158.691406 71.84375 158.691406 72.246094 158.691406 72.246094 C 158.691406 72.648438 158.691406 73.050781 158.691406 73.050781 C 157.882812 74.652344 156.285156 76.261719 157.882812 78.667969 C 158.691406 79.875 160.300781 82.28125 162.304688 85.902344 C 163.914062 88.308594 161.496094 89.917969 159.496094 90.3125 C 158.691406 90.3125 158.289062 90.714844 158.289062 91.519531 C 158.289062 91.519531 158.289062 91.921875 158.289062 91.921875 C 159.09375 93.128906 159.898438 94.730469 158.289062 95.535156 C 157.882812 95.9375 157.480469 96.339844 157.480469 96.339844 C 157.078125 96.339844 157.078125 96.742188 157.078125 96.742188 C 157.078125 96.742188 157.078125 96.742188 157.078125 97.144531 C 157.078125 97.949219 157.078125 99.148438 156.675781 99.953125 C 156.675781 100.355469 156.675781 100.757812 156.675781 100.757812 C 157.480469 102.761719 157.480469 104.371094 156.285156 105.980469 C 156.285156 106.375 156.675781 106.375 156.675781 106.375 C 161.496094 106.777344 166.320312 107.984375 170.335938 110.792969 C 170.738281 111.195312 172.738281 111.597656 175.960938 112.402344 C 176.363281 112.804688 176.753906 112.804688 177.15625 112.804688 C 178.367188 113.609375 180.378906 114.808594 183.1875 116.820312 C 184.785156 118.027344 187.203125 117.625 188.800781 118.027344 C 191.621094 118.824219 193.222656 120.835938 194.429688 123.644531 C 195.636719 126.058594 196.441406 128.0625 199.652344 128.464844 C 201.253906 128.464844 203.667969 128.464844 206.476562 128.464844 C 206.878906 128.464844 207.683594 128.464844 208.085938 128.464844 C 209.285156 129.269531 210.492188 130.476562 212.503906 129.671875 C 218.523438 128.0625 224.550781 125.253906 230.570312 122.042969 C 230.570312 122.042969 230.972656 121.640625 231.375 122.042969 C 231.375 122.042969 231.777344 122.042969 231.777344 122.445312 C 232.179688 122.445312 232.582031 122.445312 232.582031 122.445312 L 236.195312 118.824219 C 236.597656 118.824219 236.597656 118.824219 236.597656 118.824219 L 237.796875 109.996094 C 237.796875 109.59375 238.199219 109.191406 238.199219 109.191406 C 239.003906 107.984375 240.210938 107.582031 241.410156 106.777344 C 242.617188 106.375 243.421875 106.375 244.226562 107.179688 C 244.226562 107.179688 244.226562 107.582031 244.628906 107.582031 C 244.628906 107.582031 245.03125 107.179688 245.03125 107.179688 C 245.425781 105.175781 246.632812 103.96875 248.242188 103.566406 C 249.441406 102.761719 251.453125 101.964844 254.261719 100.757812 C 257.875 98.746094 257.875 102.359375 259.484375 104.371094 C 259.484375 104.371094 259.886719 104.773438 259.886719 104.773438 C 261.890625 105.980469 262.695312 107.179688 262.695312 109.191406 C 262.695312 109.59375 262.695312 109.996094 263.097656 109.996094 C 264.707031 111.597656 265.503906 114.011719 265.109375 116.417969 C 265.109375 116.417969 265.109375 116.820312 265.109375 117.222656 C 266.710938 119.226562 266.308594 121.238281 264.304688 122.839844 C 263.902344 123.242188 263.902344 123.242188 263.5 123.644531 C 263.5 124.851562 263.097656 125.65625 262.695312 125.65625 C 259.082031 128.0625 256.273438 129.671875 254.261719 130.476562 C 253.859375 130.476562 252.257812 130.871094 249.84375 131.273438 C 249.441406 131.273438 248.644531 131.273438 248.242188 131.675781 C 245.03125 133.285156 242.214844 135.289062 239.003906 137.703125 C 239.003906 137.703125 239.003906 138.105469 239.003906 138.507812 C 240.210938 142.523438 240.613281 146.542969 240.210938 150.558594 C 240.210938 150.949219 240.210938 150.949219 240.210938 150.949219 C 242.617188 149.75 245.425781 148.542969 248.644531 147.738281 C 249.441406 147.738281 250.648438 146.542969 252.257812 144.929688 C 254.664062 143.320312 256.675781 142.121094 259.082031 141.71875 C 259.484375 141.71875 259.886719 141.316406 260.289062 141.316406 C 261.488281 140.511719 266.308594 137.703125 275.949219 132.078125 C 277.953125 130.871094 279.964844 130.074219 281.96875 129.269531 C 282.773438 129.269531 283.175781 128.464844 283.578125 128.0625 L 292.011719 118.429688 C 292.011719 118.429688 292.011719 118.027344 292.011719 118.027344 C 289.597656 115.613281 287.191406 113.609375 285.1875 111.597656 C 276.351562 104.773438 267.515625 97.949219 257.875 91.519531 C 251.050781 87.101562 245.425781 83.890625 237.394531 79.875 C 236.597656 79.472656 236.195312 79.070312 236.195312 78.265625 C 236.195312 77.871094 236.195312 76.664062 236.597656 75.457031 C 237 71.039062 238.199219 66.621094 239.808594 62.203125 C 240.210938 61.808594 239.808594 61.808594 239.808594 61.40625 C 236.195312 59.394531 232.179688 57.390625 228.164062 55.78125 C 224.148438 53.777344 220.132812 53.375 216.117188 52.972656 C 215.3125 52.570312 214.507812 52.570312 213.703125 52.167969 C 212.101562 50.960938 210.492188 50.15625 208.488281 49.761719 C 202.058594 47.75 198.042969 46.542969 197.238281 46.542969 C 195.234375 45.746094 192.023438 45.746094 188.007812 45.746094 C 188.007812 45.746094 187.605469 45.746094 187.203125 45.746094 C 182.785156 48.554688 179.976562 48.554688 179.976562 42.527344 C 179.976562 42.125 179.976562 41.730469 179.976562 41.730469 L 181.980469 38.109375 C 182.382812 37.714844 182.382812 37.714844 182.382812 37.714844 L 183.589844 37.3125 C 183.589844 37.3125 183.992188 37.3125 183.992188 37.3125 C 183.992188 36.910156 183.589844 36.910156 183.589844 36.910156 C 182.785156 36.910156 181.980469 36.507812 181.171875 36.105469 C 181.171875 36.105469 180.769531 35.703125 180.769531 35.703125 C 179.976562 34.09375 179.976562 32.894531 181.171875 31.6875 C 181.171875 31.285156 181.171875 31.285156 181.171875 30.882812 C 180.769531 29.683594 181.171875 28.476562 182.382812 27.671875 C 183.992188 26.460938 182.785156 25.667969 183.1875 24.460938 C 183.992188 23.25 185.1875 22.445312 186.800781 22.445312 C 186.800781 22.445312 187.203125 22.042969 187.203125 22.042969 C 188.007812 20.445312 189.207031 20.042969 191.21875 20.445312 C 191.621094 20.445312 192.023438 20.445312 192.023438 20.445312 C 193.625 19.636719 194.429688 19.636719 195.636719 20.042969 C 195.636719 20.042969 196.039062 20.445312 196.441406 20.042969 C 198.042969 19.636719 200.457031 20.042969 203.265625 20.445312 C 204.472656 20.847656 206.476562 22.042969 208.882812 24.058594 C 214.105469 28.074219 218.925781 30.480469 226.152344 33.699219 C 228.960938 34.496094 231.375 36.910156 233.378906 40.121094 C 233.78125 40.523438 234.988281 41.328125 237 42.125 C 239.808594 43.332031 243.824219 44.941406 248.644531 46.945312 C 248.644531 46.945312 249.046875 46.945312 249.046875 46.945312 L 254.261719 42.125 C 254.664062 42.125 255.066406 41.730469 255.066406 41.730469 C 255.871094 41.730469 256.675781 42.125 257.472656 42.527344 C 268.320312 47.347656 278.757812 54.171875 288.800781 61.003906 C 293.21875 63.8125 296.429688 66.21875 298.03125 67.828125 C 300.042969 69.839844 302.449219 72.246094 304.863281 75.054688 C 305.265625 75.457031 305.660156 75.457031 306.0625 75.457031 C 307.269531 75.054688 308.476562 75.054688 308.476562 75.859375 C 310.078125 78.667969 311.6875 81.082031 313.691406 83.085938 L 322.929688 89.917969 L 334.976562 96.339844 C 334.976562 96.339844 334.976562 96.339844 335.378906 96.339844 L 339.394531 95.132812 C 336.988281 93.53125 335.78125 91.921875 336.183594 89.917969 C 336.183594 84.695312 336.988281 79.472656 338.589844 73.453125 C 338.589844 73.050781 338.589844 73.050781 338.1875 73.050781 C 334.171875 70.636719 330.558594 68.632812 326.945312 67.023438 C 324.539062 65.824219 321.722656 65.421875 318.914062 66.21875 C 316.105469 67.023438 314.898438 67.425781 314.496094 67.828125 C 314.09375 67.828125 313.691406 67.828125 313.296875 67.828125 L 309.675781 67.828125 C 309.28125 67.828125 308.878906 67.425781 308.476562 67.023438 C 306.464844 65.019531 304.460938 63.007812 303.253906 59.394531 C 303.253906 58.992188 303.253906 58.589844 303.253906 58.1875 C 303.253906 57.390625 303.65625 56.183594 304.058594 54.574219 C 304.058594 53.375 304.863281 52.167969 305.265625 51.363281 C 305.265625 50.15625 306.867188 48.957031 307.269531 47.347656 C 307.671875 47.347656 307.671875 46.945312 308.074219 46.542969 L 310.078125 44.136719 C 310.078125 43.734375 310.480469 43.734375 310.480469 43.734375 C 311.285156 43.332031 312.089844 42.929688 312.894531 42.929688 C 313.296875 42.929688 313.296875 42.929688 313.296875 42.929688 L 314.898438 41.730469 C 315.703125 41.328125 316.507812 40.925781 317.3125 41.328125 L 321.722656 43.332031 C 322.125 43.734375 322.929688 44.136719 323.332031 44.941406 C 323.734375 44.941406 326.140625 47.75 331.765625 53.375 C 332.167969 54.171875 333.375 54.574219 335.378906 55.378906 C 340.199219 56.988281 343.007812 58.1875 344.617188 58.589844 C 345.019531 58.992188 345.421875 58.992188 345.824219 58.589844 C 347.023438 57.792969 347.828125 58.589844 349.035156 58.589844 C 351.441406 59.394531 354.25 60.199219 356.664062 61.808594 C 357.066406 61.808594 357.46875 62.203125 358.265625 62.203125 C 362.28125 63.007812 363.488281 63.410156 366.296875 65.824219 C 367.503906 66.621094 368.710938 67.425781 370.714844 67.828125 C 377.144531 69.035156 381.964844 69.4375 385.980469 72.648438 C 386.375 73.050781 386.777344 73.050781 387.179688 72.648438 C 392 70.234375 396.015625 66.621094 400.03125 63.007812 C 402.4375 61.40625 405.253906 59.796875 407.660156 58.1875 C 408.0625 58.1875 408.0625 57.792969 408.464844 57.390625 C 411.273438 54.976562 414.089844 52.570312 417.300781 51.363281 C 420.109375 50.558594 422.121094 47.347656 424.929688 49.359375 C 425.332031 49.359375 425.332031 49.359375 425.734375 49.359375 C 426.53125 49.359375 429.347656 48.957031 430.949219 49.761719 C 432.15625 50.558594 430.546875 52.167969 429.75 52.570312 Z M 418.105469 139.304688 C 417.300781 137.703125 418.105469 136.09375 419.707031 134.886719 C 422.515625 133.285156 424.125 132.078125 424.929688 131.675781 C 425.332031 131.675781 425.734375 131.675781 426.136719 131.675781 L 428.945312 131.675781 C 429.347656 131.675781 429.75 131.273438 429.75 130.871094 C 431.351562 127.257812 428.542969 125.65625 425.332031 124.851562 C 424.527344 124.851562 421.71875 124.046875 417.300781 122.445312 C 410.46875 120.835938 402.839844 116.015625 396.417969 114.40625 C 394.40625 114.011719 389.59375 112.804688 381.160156 110.792969 C 379.550781 110.390625 377.546875 110.390625 376.339844 111.597656 C 376.339844 112 376.339844 113.207031 375.9375 115.613281 C 375.535156 117.222656 375.132812 119.226562 374.730469 121.238281 C 374.730469 121.238281 374.730469 121.640625 374.328125 122.042969 C 374.328125 122.042969 374.328125 122.445312 374.328125 122.445312 C 374.328125 122.839844 374.328125 122.839844 374.328125 122.839844 L 387.984375 132.480469 C 388.386719 132.480469 388.386719 132.882812 388.789062 132.882812 C 389.996094 133.285156 390.792969 133.285156 391.195312 133.285156 C 397.222656 133.6875 402.042969 134.089844 405.65625 134.492188 C 409.671875 134.886719 410.46875 136.898438 412.882812 138.902344 C 413.285156 139.304688 414.089844 139.707031 414.484375 139.707031 L 417.703125 139.707031 C 418.105469 139.707031 418.105469 139.304688 418.105469 139.304688 Z M 504.035156 190.714844 L 498.417969 193.121094 C 498.015625 193.121094 498.015625 193.523438 498.417969 193.925781 C 500.421875 194.328125 502.03125 193.925781 504.035156 193.121094 C 504.035156 193.121094 504.035156 192.71875 504.035156 192.71875 Z M 504.035156 190.714844 " fill-opacity="1" fill-rule="evenodd"/></g></svg>